<?xml version="1.0" encoding="utf-8"?>
<!-- Generator: Adobe Illustrator 25.4.1, SVG Export Plug-In . SVG Version: 6.00 Build 0)  -->
<svg version="1.1" xmlns="http://www.w3.org/2000/svg" xmlns:xlink="http://www.w3.org/1999/xlink" x="0px" y="0px"
	 viewBox="0 0 2500 2000" style="enable-background:new 0 0 2500 2000;" xml:space="preserve">
<style type="text/css">
	.st0{fill:none;}
	.st1{fill:#400705;}
	.st2{fill:#FFFFFF;}
	.st3{opacity:0.53;}
	.st4{fill:url(#New_Pattern);}
	.st5{display:none;}
	.st6{display:inline;opacity:0.17;fill:#231F20;}
	.st7{display:inline;}
	.st8{fill:#231F20;}
	.st9{font-family:'OpenSans-ExtraBold';}
	.st10{font-size:137px;}
</style>
<pattern  x="7.7" y="9.7" width="787.5" height="660" patternUnits="userSpaceOnUse" id="New_Pattern" viewBox="54.8 -761 787.5 660" style="overflow:visible;">
	<g>
		<rect x="54.8" y="-761" class="st0" width="787.5" height="660"/>
		<g>
			<path class="st1" d="M814.7-199.4c5.5,4.9,10.4,10.7,13.3,17.6c2.5,5.9,2.9,12.4,1,18.6c-1.5,4.8-4.2,9.2-8,12.4
				c0,0.4,0,0.8-0.1,1.1c-0.6,8.9-1.7,18.2-5.7,26.3c-1.9,3.8-4.7,7.3-8.4,9.6c-4.1,2.5-9.1,3.2-13.8,2.6c-16.6-2-33.2-4.6-49.8-7.4
				c-7.3-1.2-14.8-2.2-21.9-4.2c-6.2-1.7-12.2-4.6-16.1-9.8c-8.3-11.1-5.2-26-3.2-38.6c-2.8-2.3-5-5.4-6.1-9
				c-3.9-12.1,6.5-22.7,15.6-29c4.5-3.2,9.5-5.9,14.7-7.8c5.7-2,12-3.1,18-3.4c-0.1-0.5-0.2-1-0.3-1.5c-0.7-5.3,0.2-11,3.5-15.4
				c0.4-0.5,0.8-0.8,1.3-1.1c0.1-0.3,0.3-0.6,0.6-0.9c0.2-0.2,0.4-0.3,0.5-0.5c-2-2.4-2.6-5.7-1.2-8.7c1.5-3.1,5.1-4.6,8.5-4.1
				c1.4,0.2,3,0.9,4,2c0.2-0.9,0.5-1.8,0.8-2.6c1.5-3.3,5.3-5.2,8.8-4.5c1.9,0.4,3.6,1.6,4.7,3.2c2.4-1.5,5.3-2,8-0.6
				c3.2,1.7,4.9,6.2,3.1,9.4c3.1,1.7,5.7,4.1,7.2,7.4c0.1,0.3,0.3,0.6,0.4,1c0.1-0.8,0.5-1.7,1.2-2c4.4-1.9,9.2-1.9,13.5-0.4
				c2.4-3,6.5-4.7,10.2-3.1c2.6,1.1,4.4,3.8,4.6,6.6c1.3,0.4,2.5,1.3,3.3,2.5c0.9,1.4,1.1,3,0.7,4.5c2.7,1.4,4.9,4,5,7.2
				c0.2,4.3-4,8.1-8.2,7c-0.3-0.1-0.6-0.2-0.8-0.4c-0.3,4.1-1.5,8.1-4,11.5C818.2-202.2,816.5-200.7,814.7-199.4z M818.8-232
				c2.6,3.6,4.2,8.1,4.7,12.6c0.5-0.5,1.3-0.8,2.2-0.5c0.1,0,0.2,0.1,0.3,0.1c0.2,0,0.4-0.1,0.4-0.1c0.2-0.1,0.5-0.3,0.6-0.6
				c0.4-0.6,0.6-1.2,0.4-1.8c-0.4-1.7-2.4-2.7-4.1-3.1c-1.9-0.4-2.4-2.9-1.1-4.2c0.4-0.4,0.5-1,0.3-1.5c-0.3-0.5-1-0.5-1.5-0.4
				C820.2-231.3,819.4-231.5,818.8-232z M813.4-237.4c0.7,0.5,1.4,1,2.1,1.6c1,0.8,1.8,1.8,2.6,2.8c-0.3-0.7-0.3-1.5,0.1-2.2
				c0.3-0.5,0.3-1,0.1-1.6c-0.3-0.7-0.9-1.3-1.4-1.5C815.6-238.7,814.4-238.2,813.4-237.4z M787.4-238.6c-2.8-3.1-7.1-4.5-11.2-5
				c-8.5-0.9-17.5,1.6-23.4,7.9c-0.3,0.3-0.6,0.5-0.9,0.6c0,0.1-0.1,0.2-0.2,0.3c-2.9,4-3.7,9.1-2.5,13.9c1.2,5,4.3,9.4,8,13
				c6.3,6.1,16.5,12,25,6.7c8.4-5.2,8.6-16.8,8.4-25.5C790.6-230.8,790.3-235.5,787.4-238.6z M776.5-248.7
				C776.5-248.7,776.5-248.7,776.5-248.7c1.5,0.3,3.1,0.5,4.7,1c0.2,0,0.3,0.1,0.5,0.1c0.5-0.7,0.6-1,0.3-1.8
				c-0.2-0.5-0.6-1.1-1.2-1.3C779.2-251.4,777.3-250.1,776.5-248.7z M765.5-248.2c0,0,0,0.1-0.1,0.1c2.2-0.5,4.4-0.7,6.6-0.8
				c-0.2-0.3-0.3-0.7-0.3-1.1c-0.1-2.4-2.7-3.6-4.5-2.1C766.1-251.2,766.1-249.5,765.5-248.2z M753.5-243c1.6-1.2,3.4-2.1,5.3-3
				c-0.2-0.1-0.4-0.3-0.6-0.5c-0.4-0.3-0.8-0.8-1.2-1c-0.9-0.4-2-0.4-2.8,0.1C752.6-246.5,752.3-244.2,753.5-243z M706.5-168.4
				c-0.5,3-1,6.2-1.4,9.4c2.6,2.3,5.6,4.1,8.7,5.5c3.6,1.6,7.4,2.4,11.3,3.3c15,3.7,30,7.3,45.3,9.5c14.7,2.1,29.7,2.7,44.4,1
				c0.4-2.6,0.7-5.3,0.9-7.9c-8.2,3.3-18.7,0.5-23.2-7.1c-0.3,0.2-0.6,0.5-0.9,0.7c-10.1,7.5-25.6,6-33.9-3.5
				c-0.9-1-1.9-2.5-3.2-2.9c-1.3-0.4-2.7,1.1-3.8,1.7c-2.7,1.6-5.8,2.4-8.9,2.4c-6.3,0-12.7-3.1-16.2-8.4c-0.8-1.2-1.2-2.6-2-3.7
				c-0.5-0.6-0.7-0.3-1.5-0.1c-0.8,0.3-1.5,0.6-2.3,0.9c-3.2,1-6.8,1-10.1,0.2C708.6-167.6,707.6-168,706.5-168.4z M814.4-137.1
				c-8.1,1-16.4,1.2-24.6,0.8c-15.4-0.7-30.7-3.4-45.7-6.8c-7.7-1.7-15.5-3.6-23.2-5.5c-5.8-1.4-11.4-3.7-16.1-7.3
				c-0.2,2-0.2,4.1-0.2,6c4.9,3.5,10.5,6,16.1,7.9c6.4,2.2,13,3.7,19.6,5.1c7,1.4,14,2.8,21,4c8.6,1.4,17.3,2.3,26,2.9
				c8.3,0.5,16.7,0.6,25,0.3C813.2-132.2,813.9-134.7,814.4-137.1z M811.4-127.2c-0.4,0-0.8,0-1.2,0c-8.8,0.2-17.7,0-26.5-0.6
				c-8.8-0.7-17.6-1.7-26.2-3.3c-6.8-1.2-13.7-2.5-20.5-4c-6.7-1.4-13.3-3.1-19.7-5.5c-4.3-1.6-8.5-3.6-12.3-6.1
				c0.7,5.5,2.7,10.6,7.4,14.2c4.6,3.6,10.6,5,16.2,6.1c7.5,1.5,15.1,2.7,22.6,4c7.8,1.3,15.6,2.5,23.4,3.6
				c3.8,0.6,7.7,1.1,11.6,1.6c3.3,0.4,6.6,1.1,9.9,1.1c2.2,0,3.7-0.2,5.9-1c0.2-0.1,0.3-0.1,0.5-0.2c-0.2,0.1-0.2,0.1,0.1,0
				c0.2-0.1,0.4-0.2,0.7-0.3c0.4-0.2,0.8-0.4,1.2-0.7c0.4-0.2,0.7-0.5,1.1-0.8c0,0,0.6-0.5,0.6-0.5
				C808.4-121.6,810.1-124.4,811.4-127.2z M810.1-197c-2.1,0.9-4.3,1.5-6.6,1.8c-5.8,1-12.1,0.6-17.1-2.9c-1.7,1.4-3.7,2.4-5.8,3.1
				c-11.2,3.4-22.7-3.9-29.7-12.2c-2.2-2.6-4-5.4-5.3-8.5c-0.2,0.1-0.5,0.2-0.8,0.2c-1.2,0.1-2.4,0.2-3.6,0.3
				c-3.1,0.4-6.1,0.9-9.1,1.6c-1.5,0.3-2.9,0.7-4.3,1.2c-1.3,0.4-2,0.8-3,1.2c-4.8,2.2-9.4,4.9-13.5,8.2c-4.1,3.3-8.1,7.2-10.1,12.1
				c-0.8,2-1.2,4.1-1,6.5c0.1,0.8,0.4,2.2,0.8,3.3c0.4,1.2,1.1,2.5,1.9,3.6c3.2,4.3,9.3,6.5,14.6,5.3c1.6-0.4,3.1-1.3,4.7-1.6
				c2.1-0.4,4,0.3,5.3,2c1,1.2,1.5,2.7,2.3,4c0.7,1.1,1.5,2,2.4,2.8c3.8,3.4,9.6,4.4,14.4,2.6c1.2-0.5,2.4-1.4,3.6-2.1
				c1.7-1,3.6-1.5,5.6-1.1c3.3,0.8,5,3.9,7.3,6.1c7.8,7.3,21.6,6.5,28.6-1.6c1.3-1.5,3.7-0.6,4.2,1.1c1.3,4.6,5.5,7.4,10.2,8.3
				c3.5,0.7,7.2-0.2,10.3-2.2c0.3-0.7,1-1.1,1.7-1.2c0,0,0,0,0,0c3.8-3.3,6-8,6.9-12.9c2-11.4-6.2-21.6-14.2-28.6
				C810.4-196.5,810.2-196.7,810.1-197z M816.1-207.9c2.2-3.7,3-8.4,2.2-12.6c-0.8-4.7-3.2-9.3-7-12.2c-3.7-2.9-9.1-4.2-13.6-2.3
				c-1.1,0.5-2.3,0.4-3.1-0.4c1.2,4.1,1.1,8.6,1.1,12.8c-0.1,5.9-0.7,11.9-3.4,17.3c-0.6,1.3-1.4,2.5-2.3,3.6
				c4.2,2.3,9.2,2.4,13.8,1.3C808.7-201.5,813.5-203.5,816.1-207.9z"/>
			<path class="st1" d="M838.4-185.8c-0.6,0.2-1.1,0.9-0.9,1.6c2.3,6.2,2.8,12.9,1.5,19.3c-0.1,0.7,0.2,1.4,0.9,1.6
				c0.6,0.2,1.4-0.2,1.6-0.9c1.4-6.9,0.9-14.1-1.5-20.7C839.7-185.5,839.1-186,838.4-185.8z"/>
			<path class="st1" d="M833.1-183.2c-0.6,0.4-0.7,1.1-0.5,1.7c1.3,3.1,1.8,6.4,1.4,9.7c-0.1,0.7,0.6,1.3,1.3,1.3
				c0.7,0,1.2-0.6,1.3-1.3c0.4-3.8-0.2-7.5-1.7-11C834.6-183.4,833.7-183.5,833.1-183.2z"/>
			<path class="st1" d="M905.2-331.2c-0.1,0.4-0.3,0.8-0.5,1.1c-4.1,8.8-14.3,12.6-23,15.1c-0.1,0-0.2,0-0.2,0
				c-0.8,2.3-2.2,4.4-4.3,6.1c-4.3,3.4-9.9,4.9-14.9,6.7c-5.3,2-11.2,4-16.6,1.2c-3.9-2-6.1-6-7.4-10c-7.8,1.5-16.2,1.5-23.1-2.9
				c-3-1.9-5.5-4.4-7.1-7.6c-0.4-0.7-0.7-1.4-1-2.2c-9.9,3-17.3-7.5-19.1-15.8c-1-4.6-0.7-9.3,1.5-13.5c1.9-3.7,5.2-6.6,9.2-7.8
				c0.2-0.1,0.4-0.1,0.6-0.1c0.3-4.5,1.6-8.9,3.9-12.9c2.9-5,8-9.3,13.8-9.5c-0.4-1.3-0.7-2.6-0.6-4.1c0-0.5,0.2-1,0.5-1.4
				c0.3-1.6,0.7-3,1.6-4.4c2-3.3,5.2-5.8,8.5-7.7c3.7-2.2,7.9-3.7,12-4.8c6.4-1.7,13.2-1.9,19.8-1.6c6.3,0.3,14.2,1.1,18.8,6
				c0.9,1,1.6,2,2.1,3.2c6-2.8,13.5-1.8,19.3,1.1c5.7,2.9,10.2,8.1,11.6,14.3c8.1-4.4,18.8-2.9,25.1,4.4c8.2,9.4,5.6,23.5-0.7,33.2
				C928.6-335.2,917.1-329.1,905.2-331.2z M872.9-398.8C872.9-398.8,872.9-398.8,872.9-398.8L872.9-398.8z M805.6-328.4
				c-0.2-0.9-0.4-1.8-0.6-2.7c-0.6-3.4-1-6.9-1.9-10.2c-1-3.7-2.4-7.3-3.2-11c-0.2-1.1-0.4-2.2-0.5-3.4c-5.8,2.3-7.7,9.2-6.5,14.9
				C794.1-335.2,798.7-326.4,805.6-328.4z M837.1-315.8c-0.8-3.8-1.3-7.7-1.9-11.4c-1.1-6.2-2.1-12.4-3.2-18.6
				c-0.9-5.5-1.7-11.1-3.2-16.6c-1.3-4.9-3.3-9.4-6.7-13.3c-0.7-0.8-1.4-1.6-2.1-2.4c-0.3,0.1-0.7,0.1-1.1,0
				c-6.3-1.5-11.4,5.6-13.2,10.7c-1,2.9-1.6,5.8-1.5,8.9c0,3.4,0.9,6.6,1.9,9.8c1,3.1,2,6.2,2.6,9.4c0.6,3.1,1,6.2,1.6,9.2
				c0.6,2.8,1.5,5.4,3,7.8c1.6,2.4,3.9,4.1,6.4,5.4C825.2-314.4,831.4-314.6,837.1-315.8z M877.2-323.9c-0.3-2.7-0.8-5.5-1.3-8.2
				c-1.1-5.5-2.5-11-3.6-16.5c-2.2-10.6-3.6-21.8-0.9-32.5c0.6-2.6,1.6-5.1,2.7-7.5c0.5-1.2,1-2.4,1.3-3.7c0.1-0.5,0.2-0.9,0.2-1.4
				c0,0-0.1-0.8-0.1-0.8c-0.1-0.3-0.1-0.7-0.2-1c0-0.1-0.1-0.3-0.1-0.4c0,0,0-0.1,0-0.1c0,0,0,0,0,0c-0.1-0.3-0.3-0.6-0.5-0.9
				c-0.1-0.1-0.3-0.4-0.3-0.5c-0.4-0.5-0.8-0.9-1.3-1.3c0,0,0,0,0,0c-0.1-0.1-0.2-0.2-0.3-0.2c-0.3-0.2-0.6-0.4-0.9-0.5
				c-0.3-0.2-0.7-0.4-1-0.5c-0.2-0.1-0.3-0.2-0.5-0.2c0,0-0.1,0-0.1,0c-0.6-0.2-1.2-0.5-1.9-0.6c-1.5-0.4-3-0.7-4.6-1
				c-0.1,0-0.5-0.1-0.5-0.1c-0.2,0-0.4,0-0.5-0.1c-0.4,0-0.7-0.1-1.1-0.1c-0.8-0.1-1.5-0.1-2.3-0.2c-1.5-0.1-3.1-0.1-4.6-0.1
				c-6.5,0.1-12.3,0.6-18.5,2.8c-3.4,1.2-7,2.9-9.8,5.1c-0.6,0.5-1.3,1.1-1.8,1.6c-0.5,0.5-1.1,1.2-1.3,1.5
				c-0.4,0.6-0.8,1.2-1.1,1.9c0,0-0.2,0.6-0.2,0.7c0,0.2-0.2,1.1-0.2,0.6c-0.1,0.4-0.2,0.8-0.3,1.1c0,1.6,0.4,2.9,1.4,4.3
				c1,1.5,2.4,2.8,3.6,4.2c1.6,1.9,3,3.8,4.1,6c2.3,4.6,3.6,9.6,4.5,14.6c2.1,11.3,3.9,22.7,5.9,34.1c1.2,6.9,2,19.6,11.6,19.1
				c2.5-0.1,4.9-1.1,7.2-1.9c2.7-1,5.4-2,8.1-3c3.7-1.4,8-3.3,9.2-7.5C877.6-319.2,877.5-321.6,877.2-323.9z M901.9-372
				c0.5-2.9,2.1-5.4,4.2-7.5c0-0.1-0.1-0.2-0.1-0.3c-0.8-5.7-4.3-10.1-9.3-12.7c-4.7-2.5-11.2-3.3-16.2-0.4c0,0.7-0.1,1.5-0.3,2.2
				c-0.7,2.7-2.1,5.2-3,7.8c-0.9,2.5-1.5,5.1-1.8,7.8c-1.6,11.7,1.3,23.3,3.9,34.7c1.3,5.8,2.6,11.7,3.1,17.7
				c0.1,0.8,0.1,1.6,0.1,2.4c4.6-1.4,9.2-3.1,13-6.1c1.9-1.5,3.5-3.3,4.6-5.5c1.5-2.9,1.7-6.3,1.7-9.5c0-6.8-0.2-13.7-0.2-20.5
				C901.5-365.3,901.3-368.7,901.9-372z M906.5-336.1c11.8,2.1,22.3-6.2,26.8-16.6c2.1-4.9,3.4-10.7,2-16c-1.2-4.5-4.3-8.1-8.4-10.2
				c-4-2-9-1.9-13.1,0.1c-2,1-3.9,2.3-5.3,4.1c-1.7,2.2-1.9,4.8-1.9,7.5c0,6.4,0.2,12.8,0.2,19.1C906.9-344,907.1-340,906.5-336.1z"
				/>
			<path class="st1" d="M813.3-340.6c-0.1-0.7-0.5-1.3-1.3-1.3c-0.6,0-1.3,0.6-1.3,1.3c0.8,7,1.8,14.7,7,19.9
				c1.2,1.1,2.9-0.6,1.8-1.8C814.8-327.2,814-334.3,813.3-340.6z"/>
			<path class="st1" d="M826.9-318.1c-0.1,0-0.2,0-0.4,0c-0.3,0-0.5-0.1-0.8-0.2c-0.2-0.1-0.5-0.3-0.7-0.4c-0.1-0.1-0.2-0.2-0.3-0.3
				c-0.5-0.5-1.3-0.5-1.8,0c-0.5,0.5-0.5,1.3,0,1.8c1,1.1,2.5,1.7,4,1.7c0.7,0,1.3-0.6,1.3-1.3C828.1-317.5,827.6-318.1,826.9-318.1
				z"/>
			<path class="st1" d="M709.4-305.1c-0.2-0.1-0.3-0.3-0.3-0.5c0-0.2,0.1-0.4,0.3-0.5c3.5-2.6,6.3-6.2,7.9-10.3
				c0.1-0.2,0.3-0.4,0.6-0.4h0c0.3,0,0.5,0.2,0.6,0.4c1.6,4.1,4.4,7.6,7.9,10.3c0.2,0.1,0.3,0.3,0.3,0.5c0,0.2-0.1,0.4-0.3,0.5
				c-3.5,2.6-6.3,6.2-7.9,10.3c-0.1,0.2-0.3,0.4-0.6,0.4h0c-0.3,0-0.5-0.2-0.6-0.4C715.7-299,713-302.5,709.4-305.1z M710.8-305.6
				c3,2.4,5.5,5.5,7.1,8.9c1.6-3.5,4.1-6.5,7.1-8.9c-3-2.4-5.5-5.5-7.1-9C716.3-311.1,713.9-308,710.8-305.6z"/>
			<path class="st1" d="M689.5-304.5c0.2,0.1,0.3,0.3,0.3,0.5c0,0.2-0.1,0.4-0.3,0.5c-1.7,1.2-3,2.9-3.7,4.8
				c-0.1,0.2-0.3,0.4-0.6,0.4h0c-0.3,0-0.5-0.2-0.6-0.4c-0.8-1.9-2.1-3.6-3.7-4.8c-0.2-0.1-0.3-0.3-0.3-0.5c0-0.2,0.1-0.4,0.3-0.5
				c1.7-1.2,3-2.9,3.7-4.9c0.1-0.2,0.3-0.4,0.6-0.4h0c0.3,0,0.5,0.2,0.6,0.4C686.5-307.4,687.8-305.7,689.5-304.5z M688.1-304
				c-1.2-1-2.2-2.3-2.9-3.6c-0.7,1.4-1.7,2.6-2.9,3.6c1.2,1,2.2,2.2,2.9,3.6C685.9-301.7,686.9-302.9,688.1-304z"/>
			<path class="st1" d="M704.2-294.5c1.8,0,3.3,1.5,3.3,3.3c0,1.8-1.5,3.3-3.3,3.3s-3.3-1.5-3.3-3.3
				C700.9-293,702.4-294.5,704.2-294.5z M704.2-293.3c-1.2,0-2.1,0.9-2.1,2.1c0,1.2,0.9,2.1,2.1,2.1c1.2,0,2.1-0.9,2.1-2.1
				C706.3-292.3,705.4-293.3,704.2-293.3z"/>
			<path class="st1" d="M697-393.6c0.7,0,1.3-0.6,1.3-1.3c0-1.3,0-2.6,0-4c0-0.7-0.6-1.3-1.3-1.3c-0.7,0-1.3,0.6-1.3,1.3
				c0,1.3,0,2.6,0,4C695.7-394.2,696.3-393.5,697-393.6z"/>
			<path class="st1" d="M697-382.3c0.7,0,1.3-0.6,1.3-1.3c0-1.3,0-2.6,0-4c0-0.7-0.6-1.3-1.3-1.3c-0.7,0-1.3,0.6-1.3,1.3
				c0,1.3,0,2.6,0,4C695.7-382.9,696.3-382.3,697-382.3z"/>
			<path class="st1" d="M700.6-389.9c1.3,0,2.6,0,4,0c0.7,0,1.3-0.6,1.3-1.3c0-0.7-0.6-1.3-1.3-1.3c-1.3,0-2.6,0-4,0
				c-0.7,0-1.3,0.6-1.3,1.3C699.4-390.5,699.9-389.9,700.6-389.9z"/>
			<path class="st1" d="M693.3-392.5c-1.3,0-2.6,0-4,0c-0.7,0-1.3,0.6-1.3,1.3c0,0.7,0.6,1.3,1.3,1.3c1.3,0,2.6,0,4,0
				c0.7,0,1.3-0.6,1.3-1.3C694.6-391.9,694.1-392.5,693.3-392.5z"/>
			<path class="st1" d="M664.4-195.4c0,2.5-2,4.5-4.5,4.5c-2.5,0-4.5-2-4.5-4.5c0-2.5,2-4.5,4.5-4.5
				C662.3-199.9,664.4-197.9,664.4-195.4z M661.8-195.4c0-1.1-0.9-2-2-2c-1.1,0-2,0.9-2,2c0,1.1,0.9,2,2,2
				C661-193.5,661.8-194.3,661.8-195.4z"/>
			<path class="st1" d="M762.3-415.2c0-2.5,2-4.5,4.5-4.5c2.5,0,4.5,2,4.5,4.5c0,2.5-2,4.5-4.5,4.5
				C764.3-410.7,762.3-412.7,762.3-415.2z M764.8-415.2c0,1.1,0.9,2,2,2c1.1,0,2-0.9,2-2c0-1.1-0.9-2-2-2
				C765.7-417.1,764.8-416.2,764.8-415.2z"/>
		</g>
		<g>
			<path class="st1" d="M608.9-7.3c-0.1,0.1-0.3,0.1-0.4,0.2c-10.3,3.3-20.9,5.4-31.6,6.4c-9.4,0.9-18.9,0.9-28.3,0
				c-4.7-0.5-9.5-1.1-14.1-2.1c-2.2-0.5-4.1-1.4-5.4-3.3c-1.3-1.8-2-4.1-2.9-6.2c-3.7-8.7-6.6-17.8-8.8-27c-0.5-2.1-1.2-4.3-0.8-6.5
				c0.4-2.3,2.2-3.8,4.4-4.4c2.2-0.5,4.6-0.7,6.9-1c2.3-0.3,4.5-0.6,6.8-0.9c-1.6-5.7-0.1-12,4.8-16c1.7-1.4,3.5-2.3,5.5-2.9
				c-1.1-4.7,0.2-9.9,3.5-13.4c2.4-2.6,5.6-4,9.1-4.4c-0.6-2.2-0.6-4.5,0.1-6.7c1.1-3.2,3.3-5.6,6.5-6.9c2.7-1.1,5.2-2.1,6.9-4.7
				c1.4-2.1,2.3-4.8,1.9-7.4c-0.3-2,1.1-3.4,3.1-3.1c5,0.7,9.5,4.1,11.8,8.6c0.3,0.6,0.3,1.2,0.2,1.7c2.1-0.6,4.2-0.9,6.4-0.9
				c0.4,0,0.7,0,1.1,0.1c1-0.9,2-1.8,3-2.6c1.1-0.8,2.5-1.1,3.6,0c0.9,0.9,1.1,2.7,0,3.6c-0.2,0.1-0.4,0.3-0.5,0.4
				c4.3,1.7,8,4.9,10,9.3c2.4,5.4,2.5,11.9-0.1,17.2c1.7,0,3.4,0.4,4.9,1.4c5.1,3.2,7.1,9.9,6,15.6c-0.6,3.1-2.3,6-4.7,8
				c-1.8,1.5-3.9,2.5-6.1,3.2c3.3,0.8,5.9,3.4,7.2,6.7c1.6,4.1,1.1,8.7,1,12.9c-0.1,3.7-0.1,7.5-0.7,11.2
				C618.3-15,615.1-9.1,608.9-7.3z M528.2-20.8c6.3,0.9,12.7,1.8,19.1,2.5c11.3,1.2,22.8,1.8,34.2,0.7c11.3-1.1,22.4-4.1,32.6-9.2
				c0.3-0.1,0.5-0.2,0.8-0.1c0.1-1.9,0.1-3.9,0.2-5.8c0-0.8,0.1-1.6,0.1-2.4c-5.2,3.4-11,5.9-17,7.6c-5.7,1.6-11.5,2.4-17.4,3.1
				c-6.2,0.7-12.5,1.4-18.8,1.5c-12.1,0.2-24.2-1.3-35.9-4.3c0.6,2,1.3,3.9,2,5.9C528-21.2,528.1-21,528.2-20.8z M615.9-60.3
				C616-60.4,616.1-60.6,615.9-60.3L615.9-60.3z M601-101.4c-1.2-0.6-2.4-1-3.7-1.3c-3.1,3.1-5.8,6.6-8,10.4
				c3.7,0.9,7.3,2.6,10.3,5.2c2.4,2.1,4.4,4.7,5.7,7.6c0,0,0-0.1,0.1-0.1c1.9-2.5,3-5.5,3-8.6C608.6-93.7,605.9-98.8,601-101.4z
				 M564.3-65.3c0.9,3.9,5,6.5,8.4,8.1c4.4,2.1,9.9,2.8,14.7,2.7c3.7-0.1,7.2-1.3,10-3.9c2.5-2.3,4.2-5.4,4.9-8.7
				c1.5-6.9-2.5-14.3-8.4-17.9c-2.1-1.3-4.5-2.2-6.9-2.6c-0.9,1.9-1.6,3.8-2.2,5.8c-1,3.1-5.8,1.8-4.9-1.3c0.5-1.6,1.1-3.1,1.7-4.6
				c-3.5,0.3-6.9,1.4-9.8,3.3c-5.7,3.6-9.9,10.8-8.3,17.6c0,0.1,0,0.2,0,0.3C563.9-66.3,564.2-65.9,564.3-65.3z M550-71.8
				c2.8,0,5.6,0.6,8.1,1.8c0-8.6,6-16.8,13.8-20.4c3.8-1.7,7.9-2.6,12-2.5c1.8-3.4,4-6.7,6.5-9.7c-1.7,0.4-3.3,1.1-4.7,2.1
				c-1.1,0.8-2.8,0.2-3.5-0.9c-0.7-1.2-0.2-2.7,0.9-3.5c0.3-0.2,0.7-0.5,1.1-0.7c-0.3-0.2-0.5-0.5-0.7-0.9c-1.2-2.5-3.2-4.3-5.6-5.3
				c-0.5,4.9-3.1,9.4-7.4,12c-2.4,1.5-5.7,1.7-7.3,4.2c-1.2,1.9-1.4,4.3-0.3,6.3c0.2,0.4,0.3,0.8,0.3,1.2c0.5,0.6,0.7,1.6,0.5,2.3
				c-0.3,1.4-1.8,2-3.1,1.8c-0.1,0-0.2,0-0.2,0c0,0-0.1,0-0.1,0c-0.2,0-0.5,0-0.7,0c-0.5,0-1,0-1.5,0c-0.1,0-0.1,0-0.1,0
				c0,0-0.1,0-0.1,0c-0.2,0-0.4,0.1-0.7,0.1c-0.4,0.1-0.9,0.2-1.3,0.4c-0.2,0.1-0.3,0.1-0.5,0.2c-0.1,0-0.3,0.1-0.4,0.2
				c-0.4,0.2-0.8,0.4-1.2,0.7c-0.2,0.1-0.4,0.3-0.6,0.4c0,0-0.1,0-0.1,0.1c0,0-0.1,0.1-0.1,0.1c-0.3,0.3-0.7,0.6-1,0.9
				c-0.1,0.1-0.2,0.3-0.3,0.4c0,0-0.2,0.3-0.3,0.3c-0.3,0.4-0.5,0.8-0.7,1.2c-0.1,0.2-0.2,0.4-0.3,0.6c0,0.1,0,0.1-0.1,0.1
				c0,0,0,0.1,0,0.1c-0.2,0.5-0.3,0.9-0.4,1.4c-0.1,0.2-0.1,0.4-0.1,0.7c0,0.1,0,0.2-0.1,0.3c0,0.4-0.1,0.9-0.1,1.3
				c0,0.5,0,0.9,0.1,1.4c0,0.1,0,0.3,0.1,0.3c0,0.2,0.1,0.4,0.2,0.7C550-72,550-71.9,550-71.8z M543.4-47.3
				c4.9,4.8,12.2,5.6,18.7,5.3c14.6-0.7,29.2-5.4,41.8-12.6c0.1,0,0.2-0.1,0.3-0.1c0.5-0.7,1.2-1.1,2.1-1.2c1-0.1,1.7-0.2,2.9-0.4
				c0.5-0.1,1-0.2,1.4-0.4c0.2-0.1,0.4-0.2,0.7-0.2c0,0,0.3-0.1,0.4-0.1c0.7-0.3,1.3-0.7,2-1.1c0.2-0.1,0.4-0.3,0.6-0.4c0,0,0,0,0,0
				c0.3-0.2,0.6-0.5,0.9-0.8c0.3-0.3,0.5-0.5,0.8-0.8c0.1-0.1,0.2-0.2,0.3-0.4c0.3-0.5,0.6-1,0.9-1.5c0,0,0,0,0,0c0,0,0,0,0,0
				c0-0.1,0.1-0.3,0.2-0.4c0.1-0.2,0.2-0.5,0.2-0.7c0.1-0.3,0.1-0.6,0.2-0.8c0-0.2,0.1-0.5,0.1-0.6c0.1-0.5,0.1-1.1,0.1-1.6
				c0-0.3,0-0.6,0-0.8c0-0.1,0-0.2,0-0.4c-0.1-0.6-0.2-1.2-0.4-1.8c-0.1-0.3-0.2-0.5-0.3-0.8c0-0.1-0.1-0.2-0.1-0.3c0,0,0,0,0,0
				c-0.3-0.5-0.5-1-0.8-1.5c-0.1-0.2-0.3-0.4-0.4-0.6c0,0,0-0.1,0-0.1c0,0-0.1-0.1-0.1-0.1c-0.4-0.4-0.8-0.7-1.1-1.1
				c-0.1,0-0.1-0.1-0.2-0.1c-0.2-0.1-0.4-0.3-0.6-0.4c-0.1-0.1-0.2-0.1-0.4-0.2c-0.2-0.1-0.4-0.1-0.6-0.2c-0.2-0.1-0.5-0.1-0.7-0.2
				c0.8,0.2,0,0-0.2,0c-0.3,0-0.6,0-0.9,0c0,0,0.1,0,0.1,0c-0.1,0-0.1,0-0.2,0c0,0,0,0,0,0c-0.1,0-0.3,0.1-0.1,0c0,0-0.1,0-0.1,0
				c-0.3,0.1-0.5,0.1-0.8,0.2c-0.2,0.1-1,0.4-0.4,0.1c-0.7,0.3-1.5,0.4-2.1,0.2c0.8,3.8,0.6,7.9-0.9,11.6c-1.6,4.1-4.4,7.7-8.1,10.2
				c-4.4,2.9-9.6,3.5-14.7,3c-5.2-0.5-10.5-1.5-15-4.2c-3.8-2.2-7.5-5.3-8.8-9.7c-0.3,0-0.6-0.1-0.9-0.3c-5.4-3.9-13.7-4.3-17.8,1.7
				C537.5-57.2,539.4-51.2,543.4-47.3z M522.1-41.1c0.5,2.3,1.1,4.7,1.8,7c0.4,1.3,0.8,2.6,1.2,3.9c6.5,1.8,13.1,3,19.8,3.8
				c6.4,0.7,12.8,1,19.3,0.8c6.1-0.2,12.3-0.9,18.4-1.7c5.6-0.7,11.3-1.7,16.7-3.3c5.6-1.7,10.8-4.2,15.6-7.5c0.1,0,0.1-0.1,0.2-0.1
				c0-0.6,0-1.2-0.1-1.7c-0.1-1.8-0.5-3.8-1.7-5.3c-0.8-1-2.3-2.1-3.7-1.9c-1.4,0.2-2.7-0.3-3.1-1.8c-0.1-0.4-0.1-0.9,0-1.3
				c-8.3,4.7-17.2,8.3-26.4,10.6c-13.7,3.4-34.4,6.4-43.2-7.6c-2.6,0.4-5.2,0.7-7.8,1.1c-2.3,0.3-4.9,0.4-7.2,1.1
				c-0.1,0-0.2,0.1-0.2,0.1c0,0.1-0.1,0.2-0.1,0.2c0,0.2,0,0.5,0,0.8C521.6-43,521.9-42,522.1-41.1z M606.1-11.6
				c0.2-0.1,0.4-0.2,0.7-0.3c5.6-1.3,7.3-7.1,7.7-12.4c-5.7,2.8-11.7,5.1-17.9,6.6c-11.2,2.8-22.8,3.5-34.2,3
				c-11.2-0.4-22.2-1.9-33.3-3.5c1.1,2.9,2.2,5.7,3.6,8.4c0.8,1.6,1.9,1.9,3.6,2.2c2.1,0.4,4.3,0.8,6.4,1.1c4.2,0.6,8.5,1,12.8,1.2
				C572.6-4.4,589.8-6.6,606.1-11.6z"/>
			<path class="st1" d="M511.5-166.2c-0.1,0.4-0.3,0.8-0.5,1.1c-4.1,8.8-14.3,12.6-23,15.1c-0.1,0-0.2,0-0.2,0
				c-0.8,2.3-2.2,4.4-4.3,6.1c-4.3,3.4-9.9,4.9-14.9,6.7c-5.3,2-11.2,4-16.6,1.2c-3.9-2-6.1-6-7.4-10c-7.8,1.5-16.2,1.5-23.1-2.9
				c-3-1.9-5.5-4.4-7.1-7.6c-0.4-0.7-0.7-1.4-1-2.2c-9.9,3-17.3-7.5-19.1-15.8c-1-4.6-0.7-9.3,1.5-13.5c1.9-3.7,5.2-6.6,9.2-7.8
				c0.2-0.1,0.4-0.1,0.6-0.1c0.3-4.5,1.6-8.9,3.9-12.9c2.9-5,8-9.3,13.8-9.5c-0.4-1.3-0.7-2.6-0.6-4.1c0-0.5,0.2-1,0.5-1.4
				c0.3-1.6,0.7-3,1.6-4.4c2-3.3,5.2-5.8,8.5-7.7c3.7-2.2,7.9-3.7,12-4.8c6.4-1.7,13.2-1.9,19.8-1.6c6.3,0.3,14.2,1.1,18.8,6
				c0.9,1,1.6,2,2.1,3.2c6-2.8,13.5-1.8,19.3,1.1c5.7,2.9,10.2,8.1,11.6,14.3c8.1-4.4,18.8-2.9,25.1,4.4c8.2,9.4,5.6,23.5-0.7,33.2
				C534.8-170.2,523.4-164.1,511.5-166.2z M479.1-233.8C479.1-233.8,479.1-233.8,479.1-233.8L479.1-233.8z M411.9-163.4
				c-0.2-0.9-0.4-1.8-0.6-2.7c-0.6-3.4-1-6.9-1.9-10.2c-1-3.7-2.4-7.3-3.2-11c-0.2-1.1-0.4-2.2-0.5-3.4c-5.8,2.3-7.7,9.2-6.5,14.9
				C400.3-170.2,404.9-161.4,411.9-163.4z M443.4-150.8c-0.8-3.8-1.3-7.7-1.9-11.4c-1.1-6.2-2.1-12.4-3.2-18.6
				c-0.9-5.5-1.7-11.1-3.2-16.6c-1.3-4.9-3.3-9.4-6.7-13.3c-0.7-0.8-1.4-1.6-2.1-2.4c-0.3,0.1-0.7,0.1-1.1,0
				c-6.3-1.5-11.4,5.6-13.2,10.7c-1,2.9-1.6,5.8-1.5,8.9c0,3.4,0.9,6.6,1.9,9.8c1,3.1,2,6.2,2.6,9.4c0.6,3.1,1,6.2,1.6,9.2
				c0.6,2.8,1.5,5.4,3,7.8c1.6,2.4,3.9,4.1,6.4,5.4C431.4-149.4,437.6-149.6,443.4-150.8z M483.5-158.9c-0.3-2.7-0.8-5.5-1.3-8.2
				c-1.1-5.5-2.5-11-3.6-16.5c-2.2-10.6-3.6-21.8-0.9-32.5c0.6-2.6,1.6-5.1,2.7-7.5c0.5-1.2,1-2.4,1.3-3.7c0.1-0.5,0.2-0.9,0.2-1.4
				c0,0-0.1-0.8-0.1-0.8c-0.1-0.3-0.1-0.7-0.2-1c0-0.1-0.1-0.3-0.1-0.4c0,0,0-0.1,0-0.1c0,0,0,0,0,0c-0.1-0.3-0.3-0.6-0.5-0.9
				c-0.1-0.1-0.3-0.4-0.3-0.5c-0.4-0.5-0.8-0.9-1.3-1.3c0,0,0,0,0,0c-0.1-0.1-0.2-0.2-0.3-0.2c-0.3-0.2-0.6-0.4-0.9-0.5
				c-0.3-0.2-0.7-0.4-1-0.5c-0.2-0.1-0.3-0.2-0.5-0.2c0,0-0.1,0-0.1,0c-0.6-0.2-1.2-0.5-1.9-0.6c-1.5-0.4-3-0.7-4.6-1
				c-0.1,0-0.5-0.1-0.5-0.1c-0.2,0-0.4,0-0.5-0.1c-0.4,0-0.7-0.1-1.1-0.1c-0.8-0.1-1.5-0.1-2.3-0.2c-1.5-0.1-3.1-0.1-4.6-0.1
				c-6.5,0.1-12.3,0.6-18.5,2.8c-3.4,1.2-7,2.9-9.8,5.1c-0.6,0.5-1.3,1.1-1.8,1.6c-0.5,0.5-1.1,1.2-1.3,1.5
				c-0.4,0.6-0.8,1.2-1.1,1.9c0,0-0.2,0.6-0.2,0.7c0,0.2-0.2,1.1-0.2,0.6c-0.1,0.4-0.2,0.8-0.3,1.1c0,1.6,0.4,2.9,1.4,4.3
				c1,1.5,2.4,2.8,3.6,4.2c1.6,1.9,3,3.8,4.1,6c2.3,4.6,3.6,9.6,4.5,14.6c2.1,11.3,3.9,22.7,5.9,34.1c1.2,6.9,2,19.6,11.6,19.1
				c2.5-0.1,4.9-1.1,7.2-1.9c2.7-1,5.4-2,8.1-3c3.7-1.4,8-3.3,9.2-7.5C483.9-154.2,483.7-156.6,483.5-158.9z M508.1-207
				c0.5-2.9,2.1-5.4,4.2-7.5c0-0.1-0.1-0.2-0.1-0.3c-0.8-5.7-4.3-10.1-9.3-12.7c-4.7-2.5-11.2-3.3-16.2-0.4c0,0.7-0.1,1.5-0.3,2.2
				c-0.7,2.7-2.1,5.2-3,7.8c-0.9,2.5-1.5,5.1-1.8,7.8c-1.6,11.7,1.3,23.3,3.9,34.7c1.3,5.8,2.6,11.7,3.1,17.7
				c0.1,0.8,0.1,1.6,0.1,2.4c4.6-1.4,9.2-3.1,13-6.1c1.9-1.5,3.5-3.3,4.6-5.5c1.5-2.9,1.7-6.3,1.7-9.5c0-6.8-0.2-13.7-0.2-20.5
				C507.8-200.3,507.5-203.7,508.1-207z M512.7-171.1c11.8,2.1,22.3-6.2,26.8-16.6c2.1-4.9,3.4-10.7,2-16c-1.2-4.5-4.3-8.1-8.4-10.2
				c-4-2-9-1.9-13.1,0.1c-2,1-3.9,2.3-5.3,4.1c-1.7,2.2-1.9,4.8-1.9,7.5c0,6.4,0.2,12.8,0.2,19.1C513.1-179,513.3-175,512.7-171.1z"
				/>
			<path class="st1" d="M477.5-178.3c-3.8-13.2-4.7-27.3-2.6-40.8c0.6-3.9,1.5-7.7,2.6-11.5c0.5-1.6-2-2.2-2.4-0.7
				c-3.9,13.6-4.8,28.1-2.6,42.1c0.6,3.9,1.5,7.8,2.6,11.6C475.5-176.1,477.9-176.8,477.5-178.3z"/>
			<path class="st1" d="M478.4-169.9c-0.2-0.2-0.6-0.4-0.9-0.4c-0.6,0-1.3,0.6-1.3,1.3c0.1,1.4,0.3,2.7,0.4,4.1
				c0,0.3,0.1,0.6,0.4,0.9c0.2,0.2,0.6,0.4,0.9,0.4c0.6,0,1.3-0.6,1.3-1.3c-0.1-1.4-0.3-2.7-0.4-4.1
				C478.7-169.4,478.6-169.7,478.4-169.9z"/>
			<path class="st1" d="M467.9-221.2c-0.7,0-1.2,0.6-1.3,1.3c-0.1,3.6-0.3,7.1-0.4,10.7c0,0.7,0.6,1.3,1.3,1.3
				c0.7,0,1.2-0.6,1.3-1.3c0.1-3.6,0.3-7.1,0.4-10.7C469.2-220.6,468.6-221.2,467.9-221.2z"/>
			<path class="st1" d="M503.6-220.7c-1.9,8.5-2.6,17.3-2.2,26c0.1,2.5,0.3,5,0.6,7.4c0.1,0.7,0.5,1.3,1.3,1.3
				c0.6,0,1.3-0.6,1.3-1.3c-1-8.5-1-17.1,0.2-25.5c0.3-2.4,0.8-4.8,1.3-7.2C506.3-221.6,503.9-222.3,503.6-220.7z"/>
			<path class="st1" d="M504-180.3c-0.7,0-1.3,0.6-1.3,1.3c0,2.1,0,4.1,0,6.2c0,0.7,0.6,1.3,1.3,1.3c0.7,0,1.3-0.6,1.3-1.3
				c0-2.1,0-4.1,0-6.2C505.3-179.7,504.7-180.3,504-180.3z"/>
			<path class="st1" d="M419.5-175.6c-0.1-0.7-0.5-1.3-1.3-1.3c-0.6,0-1.3,0.6-1.3,1.3c0.8,7,1.8,14.7,7,19.9
				c1.2,1.1,2.9-0.6,1.8-1.8C421.1-162.2,420.2-169.3,419.5-175.6z"/>
			<path class="st1" d="M433.1-153.1c-0.1,0-0.2,0-0.4,0c-0.3,0-0.5-0.1-0.8-0.2c-0.2-0.1-0.5-0.3-0.7-0.4c-0.1-0.1-0.2-0.2-0.3-0.3
				c-0.5-0.5-1.3-0.5-1.8,0c-0.5,0.5-0.5,1.3,0,1.8c1,1.1,2.5,1.7,4,1.7c0.7,0,1.3-0.6,1.3-1.3C434.4-152.5,433.8-153.1,433.1-153.1
				z"/>
			<path class="st1" d="M514.4-236.1c-0.2-0.1-0.3-0.3-0.3-0.5c0-0.2,0.1-0.4,0.3-0.5c3.5-2.6,6.3-6.2,7.9-10.3
				c0.1-0.2,0.3-0.4,0.6-0.4h0c0.3,0,0.5,0.2,0.6,0.4c1.6,4.1,4.4,7.6,7.9,10.3c0.2,0.1,0.3,0.3,0.3,0.5c0,0.2-0.1,0.4-0.3,0.5
				c-3.5,2.6-6.3,6.2-7.9,10.3c-0.1,0.2-0.3,0.4-0.6,0.4h0c-0.3,0-0.5-0.2-0.6-0.4C520.7-230,518-233.5,514.4-236.1z M515.8-236.7
				c3,2.4,5.5,5.5,7.1,8.9c1.6-3.5,4.1-6.5,7.1-8.9c-3-2.4-5.5-5.5-7.1-9C521.3-242.1,518.9-239.1,515.8-236.7z"/>
			<path class="st1" d="M498.3-249.8c-0.2-0.1-0.3-0.3-0.3-0.5c0-0.2,0.1-0.4,0.3-0.5c1.7-1.2,3-2.9,3.7-4.9
				c0.1-0.2,0.3-0.4,0.6-0.4c0,0,0,0,0,0c0.3,0,0.5,0.2,0.6,0.4c0.8,1.9,2.1,3.6,3.7,4.9c0.2,0.1,0.3,0.3,0.3,0.5
				c0,0.2-0.1,0.4-0.3,0.5c-1.7,1.2-3,2.9-3.7,4.8c-0.1,0.2-0.3,0.4-0.6,0.4c0,0,0,0,0,0c-0.3,0-0.5-0.2-0.6-0.4
				C501.3-246.8,500-248.5,498.3-249.8z M499.7-250.3c1.2,1,2.2,2.2,2.9,3.6c0.7-1.4,1.7-2.6,2.9-3.6c-1.2-1-2.2-2.3-2.9-3.6
				C501.9-252.5,500.9-251.3,499.7-250.3z"/>
			<path class="st1" d="M315.7-140.1c-0.2-0.1-0.3-0.3-0.3-0.5c0-0.2,0.1-0.4,0.3-0.5c3.5-2.6,6.3-6.2,7.9-10.3
				c0.1-0.2,0.3-0.4,0.6-0.4h0c0.3,0,0.5,0.2,0.6,0.4c1.6,4.1,4.4,7.6,7.9,10.3c0.2,0.1,0.3,0.3,0.3,0.5c0,0.2-0.1,0.4-0.3,0.5
				c-3.5,2.6-6.3,6.2-7.9,10.3c-0.1,0.2-0.3,0.4-0.6,0.4h0c-0.3,0-0.5-0.2-0.6-0.4C322-134,319.2-137.5,315.7-140.1z M317.1-140.6
				c3,2.4,5.5,5.5,7.1,8.9c1.6-3.5,4.1-6.5,7.1-8.9c-3-2.4-5.5-5.5-7.1-9C322.5-146.1,320.1-143.1,317.1-140.6z"/>
			<path class="st1" d="M295.7-139.5c0.2,0.1,0.3,0.3,0.3,0.5c0,0.2-0.1,0.4-0.3,0.5c-1.7,1.2-3,2.9-3.7,4.8
				c-0.1,0.2-0.3,0.4-0.6,0.4h0c-0.3,0-0.5-0.2-0.6-0.4c-0.8-1.9-2.1-3.6-3.7-4.8c-0.2-0.1-0.3-0.3-0.3-0.5c0-0.2,0.1-0.4,0.3-0.5
				c1.7-1.2,3-2.9,3.7-4.9c0.1-0.2,0.3-0.4,0.6-0.4h0c0.3,0,0.5,0.2,0.6,0.4C292.8-142.4,294.1-140.7,295.7-139.5z M294.3-139
				c-1.2-1-2.2-2.3-2.9-3.6c-0.7,1.4-1.7,2.6-2.9,3.6c1.2,1,2.2,2.2,2.9,3.6C292.2-136.7,293.1-138,294.3-139z"/>
			<path class="st1" d="M310.5-129.5c1.8,0,3.3,1.5,3.3,3.3c0,1.8-1.5,3.3-3.3,3.3s-3.3-1.5-3.3-3.3
				C307.1-128,308.6-129.5,310.5-129.5z M310.5-128.3c-1.2,0-2.1,0.9-2.1,2.1s0.9,2.1,2.1,2.1c1.2,0,2.1-0.9,2.1-2.1
				S311.6-128.3,310.5-128.3z"/>
			<path class="st1" d="M303.2-228.6c0.7,0,1.3-0.6,1.3-1.3c0-1.3,0-2.6,0-4c0-0.7-0.6-1.3-1.3-1.3c-0.7,0-1.3,0.6-1.3,1.3
				c0,1.3,0,2.6,0,4C302-229.2,302.5-228.5,303.2-228.6z"/>
			<path class="st1" d="M303.2-217.4c0.7,0,1.3-0.6,1.3-1.3c0-1.3,0-2.6,0-4c0-0.7-0.6-1.3-1.3-1.3c-0.7,0-1.3,0.6-1.3,1.3
				c0,1.3,0,2.6,0,4C302-218,302.5-217.3,303.2-217.4z"/>
			<path class="st1" d="M306.8-224.9c1.3,0,2.6,0,4,0c0.7,0,1.3-0.6,1.3-1.3c0-0.7-0.6-1.3-1.3-1.3c-1.3,0-2.6,0-4,0
				c-0.7,0-1.3,0.6-1.3,1.3C305.6-225.5,306.1-224.9,306.8-224.9z"/>
			<path class="st1" d="M299.6-227.5c-1.3,0-2.6,0-4,0c-0.7,0-1.3,0.6-1.3,1.3c0,0.7,0.6,1.3,1.3,1.3c1.3,0,2.6,0,4,0
				c0.7,0,1.3-0.6,1.3-1.3C300.8-226.9,300.3-227.5,299.6-227.5z"/>
			<path class="st1" d="M368.5-250.2c0-2.5,2-4.5,4.5-4.5c2.5,0,4.5,2,4.5,4.5c0,2.5-2,4.5-4.5,4.5
				C370.5-245.7,368.5-247.7,368.5-250.2z M371-250.2c0,1.1,0.9,2,2,2s2-0.9,2-2c0-1.1-0.9-2-2-2S371-251.3,371-250.2z"/>
			<path class="st1" d="M602.4-142.3c0-2.5,2-4.5,4.5-4.5c2.5,0,4.5,2,4.5,4.5c0,2.5-2,4.5-4.5,4.5
				C604.4-137.9,602.4-139.9,602.4-142.3z M604.9-142.3c0,1.1,0.9,2,2,2c1.1,0,2-0.9,2-2c0-1.1-0.9-2-2-2
				C605.8-144.3,604.9-143.4,604.9-142.3z"/>
		</g>
		<g>
			<path class="st1" d="M137.2-250.6c0.2,0.1,0.3,0.3,0.3,0.5c0,0.2-0.1,0.4-0.3,0.5c-1.7,1.2-3,2.9-3.7,4.8
				c-0.1,0.2-0.3,0.4-0.6,0.4c0,0,0,0,0,0c-0.3,0-0.5-0.2-0.6-0.4c-0.8-1.9-2.1-3.6-3.7-4.8c-0.2-0.1-0.3-0.3-0.3-0.5
				c0-0.2,0.1-0.4,0.3-0.5c1.7-1.2,3-2.9,3.7-4.9c0.1-0.2,0.3-0.4,0.6-0.4c0,0,0,0,0,0c0.3,0,0.5,0.2,0.6,0.4
				C134.3-253.5,135.6-251.8,137.2-250.6z M135.9-250.1c-1.2-1-2.2-2.3-2.9-3.6c-0.7,1.4-1.7,2.6-2.9,3.6c1.2,1,2.2,2.2,2.9,3.6
				C133.7-247.8,134.7-249,135.9-250.1z"/>
			<path class="st1" d="M215.2-172.3c-0.1,0.1-0.3,0.1-0.4,0.2c-10.3,3.3-20.9,5.4-31.6,6.4c-9.4,0.9-18.9,0.9-28.3,0
				c-4.7-0.5-9.5-1.1-14.1-2.1c-2.2-0.5-4.1-1.4-5.4-3.3c-1.3-1.8-2-4.1-2.9-6.2c-3.7-8.7-6.6-17.8-8.8-27c-0.5-2.1-1.2-4.3-0.8-6.5
				c0.4-2.3,2.2-3.8,4.4-4.4c2.2-0.5,4.6-0.7,6.9-1c2.3-0.3,4.5-0.6,6.8-0.9c-1.6-5.7-0.1-12,4.8-16c1.7-1.4,3.5-2.3,5.5-2.9
				c-1.1-4.7,0.2-9.9,3.5-13.4c2.4-2.6,5.6-4,9.1-4.4c-0.6-2.2-0.6-4.5,0.1-6.7c1.1-3.2,3.3-5.6,6.5-6.9c2.7-1.1,5.2-2.1,6.9-4.7
				c1.4-2.1,2.3-4.8,1.9-7.4c-0.3-2,1.1-3.4,3.1-3.1c5,0.7,9.5,4.1,11.8,8.6c0.3,0.6,0.3,1.2,0.2,1.7c2.1-0.6,4.2-0.9,6.4-0.9
				c0.4,0,0.7,0,1.1,0.1c1-0.9,2-1.8,3-2.6c1.1-0.8,2.5-1.1,3.6,0c0.9,0.9,1.1,2.7,0,3.6c-0.2,0.1-0.4,0.3-0.5,0.4
				c4.3,1.7,8,4.9,10,9.3c2.4,5.4,2.5,11.9-0.1,17.2c1.7,0,3.4,0.4,4.9,1.4c5.1,3.2,7.1,9.9,6,15.6c-0.6,3.1-2.3,6-4.7,8
				c-1.8,1.5-3.9,2.5-6.1,3.2c3.3,0.8,5.9,3.4,7.2,6.7c1.6,4.1,1.1,8.7,1,12.9c-0.1,3.7-0.1,7.5-0.7,11.2
				C224.5-180,221.3-174.1,215.2-172.3z M134.4-185.8c6.3,0.9,12.7,1.8,19.1,2.5c11.3,1.2,22.8,1.8,34.2,0.7
				c11.3-1.1,22.4-4.1,32.6-9.2c0.3-0.1,0.5-0.2,0.8-0.1c0.1-1.9,0.1-3.9,0.2-5.8c0-0.8,0.1-1.6,0.1-2.4c-5.2,3.4-11,5.9-17,7.6
				c-5.7,1.6-11.5,2.4-17.4,3.1c-6.2,0.7-12.5,1.4-18.8,1.5c-12.1,0.2-24.2-1.3-35.9-4.3c0.6,2,1.3,3.9,2,5.9
				C134.3-186.2,134.3-186,134.4-185.8z M222.1-225.3C222.2-225.4,222.4-225.6,222.1-225.3L222.1-225.3z M207.3-266.4
				c-1.2-0.6-2.4-1-3.7-1.3c-3.1,3.1-5.8,6.6-8,10.4c3.7,0.9,7.3,2.6,10.3,5.2c2.4,2.1,4.4,4.7,5.7,7.6c0,0,0-0.1,0.1-0.1
				c1.9-2.5,3-5.5,3-8.6C214.8-258.7,212.2-263.8,207.3-266.4z M170.6-230.3c0.9,3.9,5,6.5,8.4,8.1c4.4,2.1,9.9,2.8,14.7,2.7
				c3.7-0.1,7.2-1.3,10-3.9c2.5-2.3,4.2-5.4,4.9-8.7c1.5-6.9-2.5-14.3-8.4-17.9c-2.1-1.3-4.5-2.2-6.9-2.6c-0.9,1.9-1.6,3.8-2.2,5.8
				c-1,3.1-5.8,1.8-4.9-1.3c0.5-1.6,1.1-3.1,1.7-4.6c-3.5,0.3-6.9,1.4-9.8,3.3c-5.7,3.6-9.9,10.8-8.3,17.6c0,0.1,0,0.2,0,0.3
				C170.2-231.3,170.4-230.8,170.6-230.3z M156.3-236.8c2.8,0,5.6,0.6,8.1,1.8c0-8.6,6-16.8,13.8-20.4c3.8-1.7,7.9-2.6,12-2.5
				c1.8-3.4,4-6.7,6.5-9.7c-1.7,0.4-3.3,1.1-4.7,2.1c-1.1,0.8-2.8,0.2-3.5-0.9c-0.7-1.2-0.2-2.7,0.9-3.5c0.3-0.2,0.7-0.5,1.1-0.7
				c-0.3-0.2-0.5-0.5-0.7-0.9c-1.2-2.5-3.2-4.3-5.6-5.3c-0.5,4.9-3.1,9.4-7.4,12c-2.4,1.5-5.7,1.7-7.3,4.2c-1.2,1.9-1.4,4.3-0.3,6.3
				c0.2,0.4,0.3,0.8,0.3,1.2c0.5,0.6,0.7,1.6,0.5,2.3c-0.3,1.4-1.8,2-3.1,1.8c-0.1,0-0.2,0-0.2,0c0,0-0.1,0-0.1,0
				c-0.2,0-0.5,0-0.7,0c-0.5,0-1,0-1.5,0c-0.1,0-0.1,0-0.1,0c0,0-0.1,0-0.1,0c-0.2,0-0.4,0.1-0.7,0.1c-0.4,0.1-0.9,0.2-1.3,0.4
				c-0.2,0.1-0.3,0.1-0.5,0.2c-0.1,0-0.3,0.1-0.4,0.2c-0.4,0.2-0.8,0.4-1.2,0.7c-0.2,0.1-0.4,0.3-0.6,0.4c0,0-0.1,0-0.1,0.1
				c0,0-0.1,0.1-0.1,0.1c-0.3,0.3-0.7,0.6-1,0.9c-0.1,0.1-0.2,0.3-0.3,0.4c0,0-0.2,0.3-0.3,0.3c-0.3,0.4-0.5,0.8-0.7,1.2
				c-0.1,0.2-0.2,0.4-0.3,0.6c0,0.1,0,0.1-0.1,0.1c0,0,0,0.1,0,0.1c-0.2,0.5-0.3,0.9-0.4,1.4c-0.1,0.2-0.1,0.4-0.1,0.7
				c0,0.1,0,0.2-0.1,0.3c0,0.4-0.1,0.9-0.1,1.3c0,0.5,0,0.9,0.1,1.4c0,0.1,0,0.3,0.1,0.3c0,0.2,0.1,0.4,0.2,0.7
				C156.3-237,156.3-236.9,156.3-236.8z M149.7-212.3c4.9,4.8,12.2,5.6,18.7,5.3c14.6-0.7,29.2-5.4,41.8-12.6c0.1,0,0.2-0.1,0.3-0.1
				c0.5-0.7,1.2-1.1,2.1-1.2c1-0.1,1.7-0.2,2.9-0.4c0.5-0.1,1-0.2,1.4-0.4c0.2-0.1,0.4-0.2,0.7-0.2c0,0,0.3-0.1,0.4-0.1
				c0.7-0.3,1.3-0.7,2-1.1c0.2-0.1,0.4-0.3,0.6-0.4c0,0,0,0,0,0c0.3-0.2,0.6-0.5,0.9-0.8c0.3-0.3,0.5-0.5,0.8-0.8
				c0.1-0.1,0.2-0.2,0.3-0.4c0.3-0.5,0.6-1,0.9-1.5c0,0,0,0,0,0c0,0,0,0,0,0c0-0.1,0.1-0.3,0.2-0.4c0.1-0.2,0.2-0.5,0.2-0.7
				c0.1-0.3,0.1-0.6,0.2-0.8c0-0.2,0.1-0.5,0.1-0.6c0.1-0.5,0.1-1.1,0.1-1.6c0-0.3,0-0.6,0-0.8c0-0.1,0-0.2,0-0.4
				c-0.1-0.6-0.2-1.2-0.4-1.8c-0.1-0.3-0.2-0.5-0.3-0.8c0-0.1-0.1-0.2-0.1-0.3c0,0,0,0,0,0c-0.3-0.5-0.5-1-0.8-1.5
				c-0.1-0.2-0.3-0.4-0.4-0.6c0,0,0-0.1,0-0.1c0,0-0.1-0.1-0.1-0.1c-0.4-0.4-0.8-0.7-1.1-1.1c-0.1,0-0.1-0.1-0.2-0.1
				c-0.2-0.1-0.4-0.3-0.6-0.4c-0.1-0.1-0.2-0.1-0.4-0.2c-0.2-0.1-0.4-0.1-0.6-0.2c-0.2-0.1-0.5-0.1-0.7-0.2c0.8,0.2,0,0-0.2,0
				c-0.3,0-0.6,0-0.9,0c0,0,0.1,0,0.1,0c-0.1,0-0.1,0-0.2,0c0,0,0,0,0,0c-0.1,0-0.3,0.1-0.1,0c0,0-0.1,0-0.1,0
				c-0.3,0.1-0.5,0.1-0.8,0.2c-0.2,0.1-1,0.4-0.4,0.1c-0.7,0.3-1.5,0.4-2.1,0.2c0.8,3.8,0.6,7.9-0.9,11.6c-1.6,4.1-4.4,7.7-8.1,10.2
				c-4.4,2.9-9.6,3.5-14.7,3c-5.2-0.5-10.5-1.5-15-4.2c-3.8-2.2-7.5-5.3-8.8-9.7c-0.3,0-0.6-0.1-0.9-0.3c-5.4-3.9-13.7-4.3-17.8,1.7
				C143.7-222.2,145.7-216.2,149.7-212.3z M128.4-206c0.5,2.3,1.1,4.7,1.8,7c0.4,1.3,0.8,2.6,1.2,3.9c6.5,1.8,13.1,3,19.8,3.8
				c6.4,0.7,12.8,1,19.3,0.8c6.1-0.2,12.3-0.9,18.4-1.7c5.6-0.7,11.3-1.7,16.7-3.3c5.6-1.7,10.8-4.2,15.6-7.5c0.1,0,0.1-0.1,0.2-0.1
				c0-0.6,0-1.2-0.1-1.7c-0.1-1.8-0.5-3.8-1.7-5.3c-0.8-1-2.3-2.1-3.7-1.9c-1.4,0.2-2.7-0.3-3.1-1.8c-0.1-0.4-0.1-0.9,0-1.3
				c-8.3,4.7-17.2,8.3-26.4,10.6c-13.7,3.4-34.4,6.4-43.2-7.6c-2.6,0.4-5.2,0.7-7.8,1.1c-2.3,0.3-4.9,0.4-7.2,1.1
				c-0.1,0-0.2,0.1-0.2,0.1c0,0.1-0.1,0.2-0.1,0.2c0,0.2,0,0.5,0,0.8C127.8-208,128.1-207,128.4-206z M212.4-176.6
				c0.2-0.1,0.4-0.2,0.7-0.3c5.6-1.3,7.3-7.1,7.7-12.4c-5.7,2.8-11.7,5.1-17.9,6.6c-11.2,2.8-22.8,3.5-34.2,3
				c-11.2-0.4-22.2-1.9-33.3-3.5c1.1,2.9,2.2,5.7,3.6,8.4c0.8,1.6,1.9,1.9,3.6,2.2c2.1,0.4,4.3,0.8,6.4,1.1c4.2,0.6,8.5,1,12.8,1.2
				C178.9-169.4,196-171.5,212.4-176.6z"/>
			<path class="st1" d="M217-240c-0.1,0-0.1,0-0.2,0C216.9-239.9,216.9-239.9,217-240C217-240,217-240,217-240z"/>
			<path class="st1" d="M194.9-227c0.5,0.5,1.3,0.5,1.8,0c1.4-1.4,2.8-2.8,4.1-4.2c0.5-0.5,0.5-1.3,0-1.8c-0.5-0.5-1.3-0.5-1.8,0
				c-1.4,1.4-2.8,2.8-4.1,4.2C194.4-228.3,194.4-227.5,194.9-227z"/>
			<path class="st1" d="M194.3-231.5c1.7-0.9,3.2-2.2,4.2-3.8c0.2-0.3,0.2-0.7,0.1-1c-0.1-0.3-0.3-0.6-0.6-0.8
				c-0.6-0.3-1.3-0.1-1.7,0.5c-0.1,0.1-0.1,0.2-0.2,0.3c-0.5,0.6-1,1.2-1.7,1.7c-0.5,0.3-1,0.7-1.5,0.9c-0.6,0.3-0.8,1.2-0.5,1.7
				C192.9-231.3,193.6-231.2,194.3-231.5z"/>
			<path class="st1" d="M234.1-175.3c0.9-1.4-1.3-2.6-2.2-1.3c-3.6,5.5-9,9.7-15.1,12c-0.6,0.2-1.1,0.9-0.9,1.6
				c0.2,0.6,0.9,1.1,1.6,0.9C224.2-164.7,230.1-169.3,234.1-175.3z"/>
			<path class="st1" d="M241.3-173.6c-0.4-0.4-1.4-0.5-1.8,0c-3.8,4.9-8.4,9-13.6,12.2c-1.4,0.8-0.1,3,1.3,2.2
				c5.4-3.3,10.2-7.6,14.1-12.6C241.7-172.4,241.8-173.1,241.3-173.6z"/>
			<path class="st1" d="M117.7-331.2c-0.1,0.4-0.3,0.8-0.5,1.1c-4.1,8.8-14.3,12.6-23,15.1c-0.1,0-0.2,0-0.2,0
				c-0.8,2.3-2.2,4.4-4.3,6.1c-4.3,3.4-9.9,4.9-14.9,6.7c-5.3,2-11.2,4-16.6,1.2c-3.9-2-6.1-6-7.4-10c-7.8,1.5-16.2,1.5-23.1-2.9
				c-3-1.9-5.5-4.4-7.1-7.6c-0.4-0.7-0.7-1.4-1-2.2c-9.9,3-17.3-7.5-19.1-15.8c-1-4.6-0.7-9.3,1.5-13.5c1.9-3.7,5.2-6.6,9.2-7.8
				c0.2-0.1,0.4-0.1,0.6-0.1c0.3-4.5,1.6-8.9,3.9-12.9c2.9-5,8-9.3,13.8-9.5c-0.4-1.3-0.7-2.6-0.6-4.1c0-0.5,0.2-1,0.5-1.4
				c0.3-1.6,0.7-3,1.6-4.4c2-3.3,5.2-5.8,8.5-7.7c3.7-2.2,7.9-3.7,12-4.8c6.4-1.7,13.2-1.9,19.8-1.6c6.3,0.3,14.2,1.1,18.8,6
				c0.9,1,1.6,2,2.1,3.2c6-2.8,13.5-1.8,19.3,1.1c5.7,2.9,10.2,8.1,11.6,14.3c8.1-4.4,18.8-2.9,25.1,4.4c8.2,9.4,5.6,23.5-0.7,33.2
				C141.1-335.2,129.6-329.1,117.7-331.2z M85.4-398.8C85.4-398.8,85.4-398.8,85.4-398.8L85.4-398.8z M18.1-328.4
				c-0.2-0.9-0.4-1.8-0.6-2.7c-0.6-3.4-1-6.9-1.9-10.2c-1-3.7-2.4-7.3-3.2-11c-0.2-1.1-0.4-2.2-0.5-3.4c-5.8,2.3-7.7,9.2-6.5,14.9
				C6.6-335.2,11.2-326.4,18.1-328.4z M49.6-315.8c-0.8-3.8-1.3-7.7-1.9-11.4c-1.1-6.2-2.1-12.4-3.2-18.6
				c-0.9-5.5-1.7-11.1-3.2-16.6c-1.3-4.9-3.3-9.4-6.7-13.3c-0.7-0.8-1.4-1.6-2.1-2.4c-0.3,0.1-0.7,0.1-1.1,0
				c-6.3-1.5-11.4,5.6-13.2,10.7c-1,2.9-1.6,5.8-1.5,8.9c0,3.4,0.9,6.6,1.9,9.8c1,3.1,2,6.2,2.6,9.4c0.6,3.1,1,6.2,1.6,9.2
				c0.6,2.8,1.5,5.4,3,7.8c1.6,2.4,3.9,4.1,6.4,5.4C37.7-314.4,43.9-314.6,49.6-315.8z M89.7-323.9c-0.3-2.7-0.8-5.5-1.3-8.2
				c-1.1-5.5-2.5-11-3.6-16.5c-2.2-10.6-3.6-21.8-0.9-32.5c0.6-2.6,1.6-5.1,2.7-7.5c0.5-1.2,1-2.4,1.3-3.7c0.1-0.5,0.2-0.9,0.2-1.4
				c0,0-0.1-0.8-0.1-0.8c-0.1-0.3-0.1-0.7-0.2-1c0-0.1-0.1-0.3-0.1-0.4c0,0,0-0.1,0-0.1c0,0,0,0,0,0c-0.1-0.3-0.3-0.6-0.5-0.9
				c-0.1-0.1-0.3-0.4-0.3-0.5c-0.4-0.5-0.8-0.9-1.3-1.3c0,0,0,0,0,0c-0.1-0.1-0.2-0.2-0.3-0.2c-0.3-0.2-0.6-0.4-0.9-0.5
				c-0.3-0.2-0.7-0.4-1-0.5c-0.2-0.1-0.3-0.2-0.5-0.2c0,0-0.1,0-0.1,0c-0.6-0.2-1.2-0.5-1.9-0.6c-1.5-0.4-3-0.7-4.6-1
				c-0.1,0-0.5-0.1-0.5-0.1c-0.2,0-0.4,0-0.5-0.1c-0.4,0-0.7-0.1-1.1-0.1c-0.8-0.1-1.5-0.1-2.3-0.2c-1.5-0.1-3.1-0.1-4.6-0.1
				c-6.5,0.1-12.3,0.6-18.5,2.8c-3.4,1.2-7,2.9-9.8,5.1c-0.6,0.5-1.3,1.1-1.8,1.6c-0.5,0.5-1.1,1.2-1.3,1.5
				c-0.4,0.6-0.8,1.2-1.1,1.9c0,0-0.2,0.6-0.2,0.7c0,0.2-0.2,1.1-0.2,0.6c-0.1,0.4-0.2,0.8-0.3,1.1c0,1.6,0.4,2.9,1.4,4.3
				c1,1.5,2.4,2.8,3.6,4.2c1.6,1.9,3,3.8,4.1,6c2.3,4.6,3.6,9.6,4.5,14.6c2.1,11.3,3.9,22.7,5.9,34.1c1.2,6.9,2,19.6,11.6,19.1
				c2.5-0.1,4.9-1.1,7.2-1.9c2.7-1,5.4-2,8.1-3c3.7-1.4,8-3.3,9.2-7.5C90.1-319.2,90-321.6,89.7-323.9z M114.4-372
				c0.5-2.9,2.1-5.4,4.2-7.5c0-0.1-0.1-0.2-0.1-0.3c-0.8-5.7-4.3-10.1-9.3-12.7c-4.7-2.5-11.2-3.3-16.2-0.4c0,0.7-0.1,1.5-0.3,2.2
				c-0.7,2.7-2.1,5.2-3,7.8c-0.9,2.5-1.5,5.1-1.8,7.8c-1.6,11.7,1.3,23.3,3.9,34.7c1.3,5.8,2.6,11.7,3.1,17.7
				c0.1,0.8,0.1,1.6,0.1,2.4c4.6-1.4,9.2-3.1,13-6.1c1.9-1.5,3.5-3.3,4.6-5.5c1.5-2.9,1.7-6.3,1.7-9.5c0-6.8-0.2-13.7-0.2-20.5
				C114-365.3,113.8-368.7,114.4-372z M119-336.1c11.8,2.1,22.3-6.2,26.8-16.6c2.1-4.9,3.4-10.7,2-16c-1.2-4.5-4.3-8.1-8.4-10.2
				c-4-2-9-1.9-13.1,0.1c-2,1-3.9,2.3-5.3,4.1c-1.7,2.2-1.9,4.8-1.9,7.5c0,6.4,0.2,12.8,0.2,19.1C119.4-344,119.6-340,119-336.1z"/>
			<path class="st1" d="M83.7-343.3c-3.8-13.2-4.7-27.3-2.6-40.8c0.6-3.9,1.5-7.7,2.6-11.5c0.5-1.6-2-2.2-2.4-0.7
				c-3.9,13.6-4.8,28.1-2.6,42.1c0.6,3.9,1.5,7.8,2.6,11.6C81.8-341.1,84.2-341.8,83.7-343.3z"/>
			<path class="st1" d="M84.6-334.9c-0.2-0.2-0.6-0.4-0.9-0.4c-0.6,0-1.3,0.6-1.3,1.3c0.1,1.4,0.3,2.7,0.4,4.1
				c0,0.3,0.1,0.6,0.4,0.9c0.2,0.2,0.6,0.4,0.9,0.4c0.6,0,1.3-0.6,1.3-1.3c-0.1-1.4-0.3-2.7-0.4-4.1C85-334.4,84.9-334.7,84.6-334.9
				z"/>
			<path class="st1" d="M74.1-386.2c-0.7,0-1.2,0.6-1.3,1.3c-0.1,3.6-0.3,7.1-0.4,10.7c0,0.7,0.6,1.3,1.3,1.3c0.7,0,1.2-0.6,1.3-1.3
				c0.1-3.6,0.3-7.1,0.4-10.7C75.4-385.6,74.8-386.2,74.1-386.2z"/>
			<path class="st1" d="M109.8-385.7c-1.9,8.5-2.6,17.3-2.2,26c0.1,2.5,0.3,5,0.6,7.4c0.1,0.7,0.5,1.3,1.3,1.3
				c0.6,0,1.3-0.6,1.3-1.3c-1-8.5-1-17.1,0.2-25.5c0.3-2.4,0.8-4.8,1.3-7.2C112.6-386.6,110.2-387.3,109.8-385.7z"/>
			<path class="st1" d="M110.3-345.3c-0.7,0-1.3,0.6-1.3,1.3c0,2.1,0,4.1,0,6.2c0,0.7,0.6,1.3,1.3,1.3c0.7,0,1.3-0.6,1.3-1.3
				c0-2.1,0-4.1,0-6.2C111.5-344.7,110.9-345.3,110.3-345.3z"/>
			<path class="st1" d="M120.7-401.1c-0.2-0.1-0.3-0.3-0.3-0.5c0-0.2,0.1-0.4,0.3-0.5c3.5-2.6,6.3-6.2,7.9-10.3
				c0.1-0.2,0.3-0.4,0.6-0.4h0c0.3,0,0.5,0.2,0.6,0.4c1.6,4.1,4.4,7.6,7.9,10.3c0.2,0.1,0.3,0.3,0.3,0.5c0,0.2-0.1,0.4-0.3,0.5
				c-3.5,2.6-6.3,6.2-7.9,10.3c-0.1,0.2-0.3,0.4-0.6,0.4h0c-0.3,0-0.5-0.2-0.6-0.4C126.9-395,124.2-398.5,120.7-401.1z M122.1-401.6
				c3,2.4,5.5,5.5,7.1,8.9c1.6-3.5,4.1-6.5,7.1-8.9c-3-2.4-5.5-5.5-7.1-9C127.5-407.1,125.1-404.1,122.1-401.6z"/>
			<path class="st1" d="M104.6-414.7c-0.2-0.1-0.3-0.3-0.3-0.5c0-0.2,0.1-0.4,0.3-0.5c1.7-1.2,3-2.9,3.7-4.9
				c0.1-0.2,0.3-0.4,0.6-0.4c0,0,0,0,0,0c0.3,0,0.5,0.2,0.6,0.4c0.8,1.9,2.1,3.6,3.7,4.9c0.2,0.1,0.3,0.3,0.3,0.5
				c0,0.2-0.1,0.4-0.3,0.5c-1.7,1.2-3,2.9-3.7,4.8c-0.1,0.2-0.3,0.4-0.6,0.4c0,0,0,0,0,0c-0.3,0-0.5-0.2-0.6-0.4
				C107.5-411.8,106.2-413.5,104.6-414.7z M106-415.3c1.2,1,2.2,2.2,2.9,3.6c0.7-1.4,1.7-2.6,2.9-3.6c-1.2-1-2.2-2.3-2.9-3.6
				C108.2-417.5,107.2-416.3,106-415.3z"/>
			<path class="st1" d="M87.4-159.4c-0.7,0-1.3,0.6-1.3,1.3c0,1.3,0,2.6,0,4c0,0.7,0.6,1.3,1.3,1.3c0.7,0,1.3-0.6,1.3-1.3
				c0-1.3,0-2.6,0-4C88.6-158.8,88-159.4,87.4-159.4z"/>
			<path class="st1" d="M87.4-148.2c-0.7,0-1.3,0.6-1.3,1.3c0,1.3,0,2.6,0,4c0,0.7,0.6,1.3,1.3,1.3c0.7,0,1.3-0.6,1.3-1.3
				c0-1.3,0-2.6,0-4C88.6-147.6,88-148.2,87.4-148.2z"/>
			<path class="st1" d="M95-151.8c-1.3,0-2.6,0-4,0c-0.7,0-1.3,0.6-1.3,1.3c0,0.7,0.6,1.3,1.3,1.3c1.3,0,2.6,0,4,0
				c0.7,0,1.3-0.6,1.3-1.3C96.2-151.2,95.7-151.8,95-151.8z"/>
			<path class="st1" d="M83.7-151.8c-1.3,0-2.6,0-4,0c-0.7,0-1.3,0.6-1.3,1.3c0,0.7,0.6,1.3,1.3,1.3c1.3,0,2.6,0,4,0
				c0.7,0,1.3-0.6,1.3-1.3C85-151.2,84.4-151.8,83.7-151.8z"/>
			<path class="st1" d="M208.6-307.3c0-2.5,2-4.5,4.5-4.5c2.5,0,4.5,2,4.5,4.5c0,2.5-2,4.5-4.5,4.5
				C210.6-302.9,208.6-304.9,208.6-307.3z M211.1-307.3c0,1.1,0.9,2,2,2c1.1,0,2-0.9,2-2c0-1.1-0.9-2-2-2
				C212-309.3,211.1-308.4,211.1-307.3z"/>
		</g>
		<g>
			<path class="st1" d="M814.7-529.4c5.5,4.9,10.4,10.7,13.3,17.6c2.5,5.9,2.9,12.4,1,18.6c-1.5,4.8-4.2,9.2-8,12.4
				c0,0.4,0,0.8-0.1,1.1c-0.6,8.9-1.7,18.2-5.7,26.3c-1.9,3.8-4.7,7.3-8.4,9.6c-4.1,2.5-9.1,3.2-13.8,2.6c-16.6-2-33.2-4.6-49.8-7.4
				c-7.3-1.2-14.8-2.2-21.9-4.2c-6.2-1.7-12.2-4.6-16.1-9.8c-8.3-11.1-5.2-26-3.2-38.6c-2.8-2.3-5-5.4-6.1-9
				c-3.9-12.1,6.5-22.7,15.6-29c4.5-3.2,9.5-5.9,14.7-7.8c5.7-2,12-3.1,18-3.4c-0.1-0.5-0.2-1-0.3-1.5c-0.7-5.3,0.2-11,3.5-15.4
				c0.4-0.5,0.8-0.8,1.3-1.1c0.1-0.3,0.3-0.6,0.6-0.9c0.2-0.2,0.4-0.3,0.5-0.5c-2-2.4-2.6-5.7-1.2-8.7c1.5-3.1,5.1-4.6,8.5-4.1
				c1.4,0.2,3,0.9,4,2c0.2-0.9,0.5-1.8,0.8-2.6c1.5-3.3,5.3-5.2,8.8-4.5c1.9,0.4,3.6,1.6,4.7,3.2c2.4-1.5,5.3-2,8-0.6
				c3.2,1.7,4.9,6.2,3.1,9.4c3.1,1.7,5.7,4.1,7.2,7.4c0.1,0.3,0.3,0.6,0.4,1c0.1-0.8,0.5-1.7,1.2-2c4.4-1.9,9.2-1.9,13.5-0.4
				c2.4-3,6.5-4.7,10.2-3.1c2.6,1.1,4.4,3.8,4.6,6.6c1.3,0.4,2.5,1.3,3.3,2.5c0.9,1.4,1.1,3,0.7,4.5c2.7,1.4,4.9,4,5,7.2
				c0.2,4.3-4,8.1-8.2,7c-0.3-0.1-0.6-0.2-0.8-0.4c-0.3,4.1-1.5,8.1-4,11.5C818.2-532.2,816.5-530.6,814.7-529.4z M818.8-562
				c2.6,3.6,4.2,8.1,4.7,12.6c0.5-0.5,1.3-0.8,2.2-0.5c0.1,0,0.2,0.1,0.3,0.1c0.2,0,0.4-0.1,0.4-0.1c0.2-0.1,0.5-0.3,0.6-0.6
				c0.4-0.6,0.6-1.2,0.4-1.8c-0.4-1.7-2.4-2.7-4.1-3.1c-1.9-0.4-2.4-2.9-1.1-4.2c0.4-0.4,0.5-1,0.3-1.5c-0.3-0.5-1-0.5-1.5-0.4
				C820.2-561.3,819.4-561.5,818.8-562z M813.4-567.4c0.7,0.5,1.4,1,2.1,1.6c1,0.8,1.8,1.8,2.6,2.8c-0.3-0.7-0.3-1.5,0.1-2.2
				c0.3-0.5,0.3-1,0.1-1.6c-0.3-0.7-0.9-1.3-1.4-1.5C815.6-568.7,814.4-568.2,813.4-567.4z M787.4-568.6c-2.8-3.1-7.1-4.5-11.2-5
				c-8.5-0.9-17.5,1.6-23.4,7.9c-0.3,0.3-0.6,0.5-0.9,0.6c0,0.1-0.1,0.2-0.2,0.3c-2.9,4-3.7,9.1-2.5,13.9c1.2,5,4.3,9.4,8,13
				c6.3,6.1,16.5,12,25,6.7c8.4-5.2,8.6-16.8,8.4-25.5C790.6-560.7,790.3-565.4,787.4-568.6z M776.5-578.7
				C776.5-578.7,776.5-578.7,776.5-578.7c1.5,0.3,3.1,0.5,4.7,1c0.2,0,0.3,0.1,0.5,0.1c0.5-0.7,0.6-1,0.3-1.8
				c-0.2-0.5-0.6-1.1-1.2-1.3C779.2-581.4,777.3-580.1,776.5-578.7z M765.5-578.2c0,0,0,0.1-0.1,0.1c2.2-0.5,4.4-0.7,6.6-0.8
				c-0.2-0.3-0.3-0.7-0.3-1.1c-0.1-2.4-2.7-3.6-4.5-2.1C766.1-581.2,766.1-579.5,765.5-578.2z M753.5-572.9c1.6-1.2,3.4-2.1,5.3-3
				c-0.2-0.1-0.4-0.3-0.6-0.5c-0.4-0.3-0.8-0.8-1.2-1c-0.9-0.4-2-0.4-2.8,0.1C752.6-576.5,752.3-574.1,753.5-572.9z M706.5-498.4
				c-0.5,3-1,6.2-1.4,9.4c2.6,2.3,5.6,4.1,8.7,5.5c3.6,1.6,7.4,2.4,11.3,3.3c15,3.7,30,7.3,45.3,9.5c14.7,2.1,29.7,2.7,44.4,1
				c0.4-2.6,0.7-5.3,0.9-7.9c-8.2,3.3-18.7,0.5-23.2-7.1c-0.3,0.2-0.6,0.5-0.9,0.7c-10.1,7.5-25.6,6-33.9-3.5
				c-0.9-1-1.9-2.5-3.2-2.9c-1.3-0.4-2.7,1.1-3.8,1.7c-2.7,1.6-5.8,2.4-8.9,2.4c-6.3,0-12.7-3.1-16.2-8.4c-0.8-1.2-1.2-2.6-2-3.7
				c-0.5-0.6-0.7-0.3-1.5-0.1c-0.8,0.3-1.5,0.6-2.3,0.9c-3.2,1-6.8,1-10.1,0.2C708.6-497.6,707.6-497.9,706.5-498.4z M814.4-467.1
				c-8.1,1-16.4,1.2-24.6,0.8c-15.4-0.7-30.7-3.4-45.7-6.8c-7.7-1.7-15.5-3.6-23.2-5.5c-5.8-1.4-11.4-3.7-16.1-7.3
				c-0.2,2-0.2,4.1-0.2,6c4.9,3.5,10.5,6,16.1,7.9c6.4,2.2,13,3.7,19.6,5.1c7,1.4,14,2.8,21,4c8.6,1.4,17.3,2.3,26,2.9
				c8.3,0.5,16.7,0.6,25,0.3C813.2-462.2,813.9-464.6,814.4-467.1z M811.4-457.2c-0.4,0-0.8,0-1.2,0c-8.8,0.2-17.7,0-26.5-0.6
				c-8.8-0.7-17.6-1.7-26.2-3.3c-6.8-1.2-13.7-2.5-20.5-4c-6.7-1.4-13.3-3.1-19.7-5.5c-4.3-1.6-8.5-3.6-12.3-6.1
				c0.7,5.5,2.7,10.6,7.4,14.2c4.6,3.6,10.6,5,16.2,6.1c7.5,1.5,15.1,2.7,22.6,4c7.8,1.3,15.6,2.5,23.4,3.6
				c3.8,0.6,7.7,1.1,11.6,1.6c3.3,0.4,6.6,1.1,9.9,1.1c2.2,0,3.7-0.2,5.9-1c0.2-0.1,0.3-0.1,0.5-0.2c-0.2,0.1-0.2,0.1,0.1,0
				c0.2-0.1,0.4-0.2,0.7-0.3c0.4-0.2,0.8-0.4,1.2-0.7c0.4-0.2,0.7-0.5,1.1-0.8c0,0,0.6-0.5,0.6-0.5
				C808.4-451.6,810.1-454.4,811.4-457.2z M810.1-527c-2.1,0.9-4.3,1.5-6.6,1.8c-5.8,1-12.1,0.6-17.1-2.9c-1.7,1.4-3.7,2.4-5.8,3.1
				c-11.2,3.4-22.7-3.9-29.7-12.2c-2.2-2.6-4-5.4-5.3-8.5c-0.2,0.1-0.5,0.2-0.8,0.2c-1.2,0.1-2.4,0.2-3.6,0.3
				c-3.1,0.4-6.1,0.9-9.1,1.6c-1.5,0.3-2.9,0.7-4.3,1.2c-1.3,0.4-2,0.8-3,1.2c-4.8,2.2-9.4,4.9-13.5,8.2c-4.1,3.3-8.1,7.2-10.1,12.1
				c-0.8,2-1.2,4.1-1,6.5c0.1,0.8,0.4,2.2,0.8,3.3c0.4,1.2,1.1,2.5,1.9,3.6c3.2,4.3,9.3,6.5,14.6,5.3c1.6-0.4,3.1-1.3,4.7-1.6
				c2.1-0.4,4,0.3,5.3,2c1,1.2,1.5,2.7,2.3,4c0.7,1.1,1.5,2,2.4,2.8c3.8,3.4,9.6,4.4,14.4,2.6c1.2-0.5,2.4-1.4,3.6-2.1
				c1.7-1,3.6-1.5,5.6-1.1c3.3,0.8,5,3.9,7.3,6.1c7.8,7.3,21.6,6.5,28.6-1.6c1.3-1.5,3.7-0.6,4.2,1.1c1.3,4.6,5.5,7.4,10.2,8.3
				c3.5,0.7,7.2-0.2,10.3-2.2c0.3-0.7,1-1.1,1.7-1.2c0,0,0,0,0,0c3.8-3.3,6-8,6.9-12.9c2-11.4-6.2-21.6-14.2-28.6
				C810.4-526.5,810.2-526.7,810.1-527z M816.1-537.9c2.2-3.7,3-8.4,2.2-12.6c-0.8-4.7-3.2-9.3-7-12.2c-3.7-2.9-9.1-4.2-13.6-2.3
				c-1.1,0.5-2.3,0.4-3.1-0.4c1.2,4.1,1.1,8.6,1.1,12.8c-0.1,5.9-0.7,11.9-3.4,17.3c-0.6,1.3-1.4,2.5-2.3,3.6
				c4.2,2.3,9.2,2.4,13.8,1.3C808.7-531.5,813.5-533.5,816.1-537.9z"/>
			<path class="st1" d="M838.4-515.7c-0.6,0.2-1.1,0.9-0.9,1.6c2.3,6.2,2.8,12.9,1.5,19.3c-0.1,0.7,0.2,1.4,0.9,1.6
				c0.6,0.2,1.4-0.2,1.6-0.9c1.4-6.9,0.9-14.1-1.5-20.7C839.7-515.5,839.1-515.9,838.4-515.7z"/>
			<path class="st1" d="M833.1-513.2c-0.6,0.4-0.7,1.1-0.5,1.7c1.3,3.1,1.8,6.4,1.4,9.7c-0.1,0.7,0.6,1.3,1.3,1.3
				c0.7,0,1.2-0.6,1.3-1.3c0.4-3.8-0.2-7.5-1.7-11C834.6-513.3,833.7-513.5,833.1-513.2z"/>
			<path class="st1" d="M905.2-661.2c-0.1,0.4-0.3,0.8-0.5,1.1c-4.1,8.8-14.3,12.6-23,15.1c-0.1,0-0.2,0-0.2,0
				c-0.8,2.3-2.2,4.4-4.3,6.1c-4.3,3.4-9.9,4.9-14.9,6.7c-5.3,2-11.2,4-16.6,1.2c-3.9-2-6.1-6-7.4-10c-7.8,1.5-16.2,1.5-23.1-2.9
				c-3-1.9-5.5-4.4-7.1-7.6c-0.4-0.7-0.7-1.4-1-2.2c-9.9,3-17.3-7.5-19.1-15.8c-1-4.6-0.7-9.3,1.5-13.5c1.9-3.7,5.2-6.6,9.2-7.8
				c0.2-0.1,0.4-0.1,0.6-0.1c0.3-4.5,1.6-8.9,3.9-12.8c2.9-5,8-9.3,13.8-9.5c-0.4-1.3-0.7-2.6-0.6-4.1c0-0.5,0.2-1,0.5-1.4
				c0.3-1.6,0.7-3,1.6-4.4c2-3.3,5.2-5.8,8.5-7.7c3.7-2.2,7.9-3.7,12-4.8c6.4-1.7,13.2-1.9,19.8-1.6c6.3,0.3,14.2,1.1,18.8,6
				c0.9,1,1.6,2,2.1,3.2c6-2.8,13.5-1.8,19.3,1.1c5.7,2.9,10.2,8.1,11.6,14.3c8.1-4.4,18.8-2.9,25.1,4.4c8.2,9.4,5.6,23.5-0.7,33.2
				C928.6-665.2,917.1-659.1,905.2-661.2z M872.9-728.8C872.9-728.8,872.9-728.8,872.9-728.8L872.9-728.8z M805.6-658.3
				c-0.2-0.9-0.4-1.8-0.6-2.7c-0.6-3.4-1-6.9-1.9-10.2c-1-3.7-2.4-7.3-3.2-11c-0.2-1.1-0.4-2.2-0.5-3.4c-5.8,2.3-7.7,9.2-6.5,14.9
				C794.1-665.2,798.7-656.4,805.6-658.3z M837.1-645.7c-0.8-3.8-1.3-7.7-1.9-11.4c-1.1-6.2-2.1-12.4-3.2-18.6
				c-0.9-5.5-1.7-11.1-3.2-16.6c-1.3-4.9-3.3-9.4-6.7-13.3c-0.7-0.8-1.4-1.6-2.1-2.4c-0.3,0.1-0.7,0.1-1.1,0
				c-6.3-1.5-11.4,5.6-13.2,10.7c-1,2.9-1.6,5.8-1.5,8.9c0,3.4,0.9,6.6,1.9,9.8c1,3.1,2,6.2,2.6,9.4c0.6,3.1,1,6.2,1.6,9.2
				c0.6,2.8,1.5,5.4,3,7.8c1.6,2.4,3.9,4.1,6.4,5.4C825.2-644.4,831.4-644.6,837.1-645.7z M877.2-653.9c-0.3-2.7-0.8-5.5-1.3-8.2
				c-1.1-5.5-2.5-11-3.6-16.5c-2.2-10.6-3.6-21.8-0.9-32.5c0.6-2.6,1.6-5.1,2.7-7.5c0.5-1.2,1-2.4,1.3-3.7c0.1-0.5,0.2-0.9,0.2-1.4
				c0,0-0.1-0.8-0.1-0.8c-0.1-0.3-0.1-0.7-0.2-1c0-0.1-0.1-0.3-0.1-0.4c0,0,0-0.1,0-0.1c0,0,0,0,0,0c-0.1-0.3-0.3-0.6-0.5-0.9
				c-0.1-0.1-0.3-0.4-0.3-0.5c-0.4-0.5-0.8-0.9-1.3-1.3c0,0,0,0,0,0c-0.1-0.1-0.2-0.2-0.3-0.2c-0.3-0.2-0.6-0.4-0.9-0.5
				c-0.3-0.2-0.7-0.4-1-0.5c-0.2-0.1-0.3-0.2-0.5-0.2c0,0-0.1,0-0.1,0c-0.6-0.2-1.2-0.5-1.9-0.6c-1.5-0.4-3-0.7-4.6-1
				c-0.1,0-0.5-0.1-0.5-0.1c-0.2,0-0.4,0-0.5-0.1c-0.4,0-0.7-0.1-1.1-0.1c-0.8-0.1-1.5-0.1-2.3-0.2c-1.5-0.1-3.1-0.1-4.6-0.1
				c-6.5,0.1-12.3,0.6-18.5,2.8c-3.4,1.2-7,2.9-9.8,5.1c-0.6,0.5-1.3,1.1-1.8,1.6c-0.5,0.5-1.1,1.2-1.3,1.5
				c-0.4,0.6-0.8,1.2-1.1,1.9c0,0-0.2,0.6-0.2,0.7c0,0.2-0.2,1.1-0.2,0.6c-0.1,0.4-0.2,0.8-0.3,1.1c0,1.6,0.4,2.9,1.4,4.3
				c1,1.5,2.4,2.8,3.6,4.2c1.6,1.9,3,3.8,4.1,6c2.3,4.6,3.6,9.6,4.5,14.6c2.1,11.3,3.9,22.7,5.9,34.1c1.2,6.9,2,19.6,11.6,19.1
				c2.5-0.1,4.9-1.1,7.2-1.9c2.7-1,5.4-2,8.1-3c3.7-1.4,8-3.3,9.2-7.5C877.6-649.2,877.5-651.6,877.2-653.9z M901.9-702
				c0.5-2.9,2.1-5.4,4.2-7.5c0-0.1-0.1-0.2-0.1-0.3c-0.8-5.7-4.3-10.1-9.3-12.7c-4.7-2.5-11.2-3.3-16.2-0.4c0,0.7-0.1,1.5-0.3,2.2
				c-0.7,2.7-2.1,5.2-3,7.8c-0.9,2.5-1.5,5.1-1.8,7.8c-1.6,11.7,1.3,23.3,3.9,34.7c1.3,5.8,2.6,11.7,3.1,17.7
				c0.1,0.8,0.1,1.6,0.1,2.4c4.6-1.4,9.2-3.1,13-6.1c1.9-1.5,3.5-3.3,4.6-5.5c1.5-2.9,1.7-6.3,1.7-9.5c0-6.8-0.2-13.7-0.2-20.5
				C901.5-695.3,901.3-698.7,901.9-702z M906.5-666.1c11.8,2.1,22.3-6.2,26.8-16.6c2.1-4.9,3.4-10.7,2-16c-1.2-4.5-4.3-8.1-8.4-10.2
				c-4-2-9-1.9-13.1,0.1c-2,1-3.9,2.3-5.3,4.1c-1.7,2.2-1.9,4.8-1.9,7.5c0,6.4,0.2,12.8,0.2,19.1C906.9-674,907.1-670,906.5-666.1z"
				/>
			<path class="st1" d="M813.3-670.6c-0.1-0.7-0.5-1.3-1.3-1.3c-0.6,0-1.3,0.6-1.3,1.3c0.8,7,1.8,14.7,7,19.9
				c1.2,1.1,2.9-0.6,1.8-1.8C814.8-657.1,814-664.3,813.3-670.6z"/>
			<path class="st1" d="M826.9-648.1c-0.1,0-0.2,0-0.4,0c-0.3,0-0.5-0.1-0.8-0.2c-0.2-0.1-0.5-0.3-0.7-0.4c-0.1-0.1-0.2-0.2-0.3-0.3
				c-0.5-0.5-1.3-0.5-1.8,0c-0.5,0.5-0.5,1.3,0,1.8c1,1.1,2.5,1.7,4,1.7c0.7,0,1.3-0.6,1.3-1.3C828.1-647.5,827.6-648.1,826.9-648.1
				z"/>
			<path class="st1" d="M709.4-635.1c-0.2-0.1-0.3-0.3-0.3-0.5c0-0.2,0.1-0.4,0.3-0.5c3.5-2.6,6.3-6.2,7.9-10.3
				c0.1-0.2,0.3-0.4,0.6-0.4h0c0.3,0,0.5,0.2,0.6,0.4c1.6,4.1,4.4,7.6,7.9,10.3c0.2,0.1,0.3,0.3,0.3,0.5c0,0.2-0.1,0.4-0.3,0.5
				c-3.5,2.6-6.3,6.2-7.9,10.3c-0.1,0.2-0.3,0.4-0.6,0.4h0c-0.3,0-0.5-0.2-0.6-0.4C715.7-628.9,713-632.5,709.4-635.1z M710.8-635.6
				c3,2.4,5.5,5.5,7.1,8.9c1.6-3.5,4.1-6.5,7.1-8.9c-3-2.4-5.5-5.5-7.1-9C716.3-641.1,713.9-638,710.8-635.6z"/>
			<path class="st1" d="M689.5-634.4c0.2,0.1,0.3,0.3,0.3,0.5c0,0.2-0.1,0.4-0.3,0.5c-1.7,1.2-3,2.9-3.7,4.8
				c-0.1,0.2-0.3,0.4-0.6,0.4h0c-0.3,0-0.5-0.2-0.6-0.4c-0.8-1.9-2.1-3.6-3.7-4.8c-0.2-0.1-0.3-0.3-0.3-0.5c0-0.2,0.1-0.4,0.3-0.5
				c1.7-1.2,3-2.9,3.7-4.9c0.1-0.2,0.3-0.4,0.6-0.4h0c0.3,0,0.5,0.2,0.6,0.4C686.5-637.4,687.8-635.7,689.5-634.4z M688.1-633.9
				c-1.2-1-2.2-2.3-2.9-3.6c-0.7,1.4-1.7,2.6-2.9,3.6c1.2,1,2.2,2.2,2.9,3.6C685.9-631.7,686.9-632.9,688.1-633.9z"/>
			<path class="st1" d="M704.2-624.5c1.8,0,3.3,1.5,3.3,3.3c0,1.8-1.5,3.3-3.3,3.3s-3.3-1.5-3.3-3.3
				C700.9-623,702.4-624.5,704.2-624.5z M704.2-623.2c-1.2,0-2.1,0.9-2.1,2.1s0.9,2.1,2.1,2.1c1.2,0,2.1-0.9,2.1-2.1
				S705.4-623.2,704.2-623.2z"/>
			<path class="st1" d="M697-723.5c0.7,0,1.3-0.6,1.3-1.3c0-1.3,0-2.6,0-4c0-0.7-0.6-1.3-1.3-1.3c-0.7,0-1.3,0.6-1.3,1.3
				c0,1.3,0,2.6,0,4C695.7-724.1,696.3-723.5,697-723.5z"/>
			<path class="st1" d="M697-712.3c0.7,0,1.3-0.6,1.3-1.3c0-1.3,0-2.6,0-4c0-0.7-0.6-1.3-1.3-1.3c-0.7,0-1.3,0.6-1.3,1.3
				c0,1.3,0,2.6,0,4C695.7-712.9,696.3-712.3,697-712.3z"/>
			<path class="st1" d="M700.6-719.9c1.3,0,2.6,0,4,0c0.7,0,1.3-0.6,1.3-1.3c0-0.7-0.6-1.3-1.3-1.3c-1.3,0-2.6,0-4,0
				c-0.7,0-1.3,0.6-1.3,1.3C699.4-720.5,699.9-719.9,700.6-719.9z"/>
			<path class="st1" d="M693.3-722.4c-1.3,0-2.6,0-4,0c-0.7,0-1.3,0.6-1.3,1.3c0,0.7,0.6,1.3,1.3,1.3c1.3,0,2.6,0,4,0
				c0.7,0,1.3-0.6,1.3-1.3C694.6-721.9,694.1-722.4,693.3-722.4z"/>
			<path class="st1" d="M664.4-525.4c0,2.5-2,4.5-4.5,4.5c-2.5,0-4.5-2-4.5-4.5c0-2.5,2-4.5,4.5-4.5
				C662.3-529.9,664.4-527.8,664.4-525.4z M661.8-525.4c0-1.1-0.9-2-2-2c-1.1,0-2,0.9-2,2c0,1.1,0.9,2,2,2
				C661-523.4,661.8-524.3,661.8-525.4z"/>
			<path class="st1" d="M762.3-745.1c0-2.5,2-4.5,4.5-4.5c2.5,0,4.5,2,4.5,4.5c0,2.5-2,4.5-4.5,4.5
				C764.3-740.7,762.3-742.7,762.3-745.1z M764.8-745.1c0,1.1,0.9,2,2,2c1.1,0,2-0.9,2-2c0-1.1-0.9-2-2-2
				C765.7-747.1,764.8-746.2,764.8-745.1z"/>
		</g>
		<g>
			<path class="st1" d="M420.9-364.4c5.5,4.9,10.4,10.7,13.3,17.6c2.5,5.9,2.9,12.4,1,18.6c-1.5,4.8-4.2,9.2-8,12.4
				c0,0.4,0,0.8-0.1,1.1c-0.6,8.9-1.7,18.2-5.7,26.3c-1.9,3.8-4.7,7.3-8.4,9.6c-4.1,2.5-9.1,3.2-13.8,2.6c-16.6-2-33.2-4.6-49.8-7.4
				c-7.3-1.2-14.8-2.2-21.9-4.2c-6.2-1.7-12.2-4.6-16.1-9.8c-8.3-11.1-5.2-26-3.2-38.6c-2.8-2.3-5-5.4-6.1-9
				c-3.9-12.1,6.5-22.7,15.6-29c4.5-3.2,9.5-5.9,14.7-7.8c5.7-2,12-3.1,18-3.4c-0.1-0.5-0.2-1-0.3-1.5c-0.7-5.3,0.2-11,3.5-15.4
				c0.4-0.5,0.8-0.8,1.3-1.1c0.1-0.3,0.3-0.6,0.6-0.9c0.2-0.2,0.4-0.3,0.5-0.5c-2-2.4-2.6-5.7-1.2-8.7c1.5-3.1,5.1-4.6,8.5-4.1
				c1.4,0.2,3,0.9,4,2c0.2-0.9,0.5-1.8,0.8-2.6c1.5-3.3,5.3-5.2,8.8-4.5c1.9,0.4,3.6,1.6,4.7,3.2c2.4-1.5,5.3-2,8-0.6
				c3.2,1.7,4.9,6.2,3.1,9.4c3.1,1.7,5.7,4.1,7.2,7.4c0.1,0.3,0.3,0.6,0.4,1c0.1-0.8,0.4-1.7,1.2-2c4.4-1.9,9.2-1.9,13.5-0.4
				c2.4-3,6.5-4.7,10.2-3.1c2.6,1.1,4.4,3.8,4.6,6.6c1.3,0.4,2.5,1.3,3.3,2.5c0.9,1.4,1.1,3,0.7,4.5c2.7,1.4,4.9,4,5,7.2
				c0.2,4.3-4,8.1-8.2,7c-0.3-0.1-0.6-0.2-0.8-0.4c-0.3,4.1-1.5,8.1-4,11.5C424.5-367.2,422.8-365.6,420.9-364.4z M425.1-397
				c2.6,3.6,4.2,8.1,4.7,12.6c0.5-0.5,1.3-0.8,2.2-0.5c0.1,0,0.2,0.1,0.3,0.1c0.2,0,0.4-0.1,0.4-0.1c0.2-0.1,0.5-0.3,0.6-0.6
				c0.4-0.6,0.6-1.2,0.4-1.8c-0.4-1.7-2.4-2.7-4.1-3.1c-1.9-0.4-2.4-2.9-1.1-4.2c0.4-0.4,0.5-1,0.3-1.5c-0.3-0.5-1-0.5-1.5-0.4
				C426.5-396.3,425.7-396.5,425.1-397z M419.7-402.4c0.7,0.5,1.4,1,2.1,1.6c1,0.8,1.8,1.8,2.6,2.8c-0.3-0.7-0.3-1.5,0.1-2.2
				c0.3-0.5,0.3-1,0.1-1.6c-0.3-0.7-0.9-1.3-1.4-1.5C421.9-403.7,420.6-403.2,419.7-402.4z M393.6-403.6c-2.8-3.1-7.1-4.5-11.2-5
				c-8.5-0.9-17.5,1.6-23.4,7.9c-0.3,0.3-0.6,0.5-0.9,0.6c0,0.1-0.1,0.2-0.2,0.3c-2.9,4-3.7,9.1-2.5,13.9c1.2,5,4.3,9.4,8,13
				c6.3,6.1,16.5,12,25,6.7c8.4-5.2,8.6-16.8,8.4-25.5C396.8-395.8,396.6-400.5,393.6-403.6z M382.7-413.7
				C382.7-413.7,382.7-413.7,382.7-413.7c1.5,0.3,3.1,0.5,4.7,1c0.2,0,0.3,0.1,0.5,0.1c0.5-0.7,0.6-1,0.3-1.8
				c-0.2-0.5-0.6-1.1-1.2-1.3C385.5-416.4,383.6-415.1,382.7-413.7z M371.8-413.2c0,0,0,0.1-0.1,0.1c2.2-0.5,4.4-0.7,6.6-0.8
				c-0.2-0.3-0.3-0.7-0.3-1.1c-0.1-2.4-2.7-3.6-4.5-2.1C372.3-416.2,372.3-414.5,371.8-413.2z M359.8-408c1.6-1.2,3.4-2.1,5.3-3
				c-0.2-0.1-0.4-0.3-0.6-0.5c-0.4-0.3-0.8-0.8-1.2-1c-0.9-0.4-2-0.4-2.8,0.1C358.9-411.5,358.6-409.1,359.8-408z M312.8-333.4
				c-0.5,3-1,6.2-1.4,9.4c2.6,2.3,5.6,4.1,8.7,5.5c3.6,1.6,7.4,2.4,11.3,3.3c15,3.7,30,7.3,45.3,9.5c14.7,2.1,29.7,2.7,44.4,1
				c0.4-2.6,0.7-5.3,0.9-7.9c-8.2,3.3-18.7,0.5-23.2-7.1c-0.3,0.2-0.6,0.5-0.9,0.7c-10.1,7.5-25.6,6-33.9-3.5
				c-0.9-1-1.9-2.5-3.2-2.9c-1.3-0.4-2.7,1.1-3.8,1.7c-2.7,1.6-5.8,2.4-8.9,2.4c-6.3,0-12.7-3.1-16.2-8.4c-0.8-1.2-1.2-2.6-2-3.7
				c-0.5-0.6-0.7-0.3-1.5-0.1c-0.8,0.3-1.5,0.6-2.3,0.9c-3.2,1-6.8,1-10.1,0.2C314.9-332.6,313.8-332.9,312.8-333.4z M420.6-302.1
				c-8.1,1-16.4,1.2-24.6,0.8c-15.4-0.7-30.7-3.4-45.7-6.8c-7.7-1.7-15.5-3.6-23.2-5.5c-5.8-1.4-11.4-3.7-16.1-7.3
				c-0.2,2-0.2,4.1-0.2,6c4.9,3.5,10.5,6,16.1,7.9c6.4,2.2,13,3.7,19.6,5.1c7,1.4,14,2.8,21,4c8.6,1.4,17.3,2.3,26,2.9
				c8.3,0.5,16.7,0.6,25,0.3C419.5-297.2,420.1-299.7,420.6-302.1z M417.6-292.2c-0.4,0-0.8,0-1.2,0c-8.8,0.2-17.7,0-26.5-0.6
				c-8.8-0.7-17.6-1.7-26.2-3.3c-6.8-1.2-13.7-2.5-20.5-4c-6.7-1.4-13.3-3.1-19.7-5.5c-4.3-1.6-8.5-3.6-12.3-6.1
				c0.7,5.5,2.7,10.6,7.4,14.2c4.6,3.6,10.6,5,16.2,6.1c7.5,1.5,15.1,2.7,22.6,4c7.8,1.3,15.6,2.5,23.4,3.6
				c3.8,0.6,7.7,1.1,11.6,1.6c3.3,0.4,6.6,1.1,9.9,1.1c2.2,0,3.7-0.2,5.9-1c0.2-0.1,0.3-0.1,0.5-0.2c-0.2,0.1-0.2,0.1,0.1,0
				c0.2-0.1,0.4-0.2,0.7-0.3c0.4-0.2,0.8-0.4,1.2-0.7c0.4-0.2,0.7-0.5,1.1-0.8c0,0,0.6-0.5,0.6-0.5
				C414.6-286.6,416.4-289.4,417.6-292.2z M416.4-362c-2.1,0.9-4.3,1.5-6.6,1.8c-5.8,1-12.1,0.6-17.1-2.9c-1.7,1.4-3.7,2.4-5.8,3.1
				c-11.2,3.4-22.7-3.9-29.7-12.2c-2.2-2.6-4-5.4-5.3-8.5c-0.2,0.1-0.5,0.2-0.8,0.2c-1.2,0.1-2.4,0.2-3.6,0.3
				c-3.1,0.4-6.1,0.9-9.1,1.6c-1.5,0.3-2.9,0.7-4.3,1.2c-1.3,0.4-2,0.8-3,1.2c-4.8,2.2-9.4,4.9-13.5,8.2c-4.1,3.3-8.1,7.2-10.1,12.1
				c-0.8,2-1.2,4.1-1,6.5c0.1,0.8,0.4,2.2,0.8,3.3c0.4,1.2,1.1,2.5,1.9,3.6c3.2,4.3,9.3,6.5,14.6,5.3c1.6-0.4,3.1-1.3,4.7-1.6
				c2.1-0.4,4,0.3,5.3,2c1,1.2,1.5,2.7,2.3,4c0.7,1.1,1.5,2,2.4,2.8c3.8,3.4,9.6,4.4,14.4,2.6c1.2-0.5,2.4-1.4,3.6-2.1
				c1.7-1,3.6-1.5,5.6-1.1c3.3,0.8,5,3.9,7.3,6.1c7.8,7.3,21.6,6.5,28.6-1.6c1.3-1.5,3.7-0.6,4.2,1.1c1.3,4.6,5.5,7.4,10.2,8.3
				c3.5,0.7,7.2-0.2,10.3-2.2c0.3-0.7,1-1.1,1.7-1.2c0,0,0,0,0,0c3.8-3.3,6-8,6.9-12.9c2-11.4-6.2-21.6-14.2-28.6
				C416.6-361.5,416.5-361.7,416.4-362z M422.3-372.9c2.2-3.7,3-8.4,2.2-12.6c-0.8-4.7-3.2-9.3-7-12.2c-3.7-2.9-9.1-4.2-13.6-2.3
				c-1.1,0.5-2.3,0.4-3.1-0.4c1.2,4.1,1.1,8.6,1.1,12.8c-0.1,5.9-0.7,11.9-3.4,17.3c-0.6,1.3-1.4,2.5-2.3,3.6
				c4.2,2.3,9.2,2.4,13.8,1.3C414.9-366.5,419.7-368.5,422.3-372.9z"/>
			<path class="st1" d="M444.6-350.8c-0.6,0.2-1.1,0.9-0.9,1.6c2.3,6.2,2.8,12.9,1.5,19.3c-0.1,0.7,0.2,1.4,0.9,1.6
				c0.6,0.2,1.4-0.2,1.6-0.9c1.4-6.9,0.9-14.1-1.5-20.7C445.9-350.5,445.3-350.9,444.6-350.8z"/>
			<path class="st1" d="M439.4-348.2c-0.6,0.4-0.7,1.1-0.5,1.7c1.3,3.1,1.8,6.4,1.4,9.7c-0.1,0.7,0.6,1.3,1.3,1.3
				c0.7,0,1.2-0.6,1.3-1.3c0.4-3.8-0.2-7.5-1.7-11C440.8-348.4,439.9-348.5,439.4-348.2z"/>
			<path class="st1" d="M531-415.5c0.2,0.1,0.3,0.3,0.3,0.5c0,0.2-0.1,0.4-0.3,0.5c-1.7,1.2-3,2.9-3.7,4.8c-0.1,0.2-0.3,0.4-0.6,0.4
				c0,0,0,0,0,0c-0.3,0-0.5-0.2-0.6-0.4c-0.8-1.9-2.1-3.6-3.7-4.8c-0.2-0.1-0.3-0.3-0.3-0.5c0-0.2,0.1-0.4,0.3-0.5
				c1.7-1.2,3-2.9,3.7-4.9c0.1-0.2,0.3-0.4,0.6-0.4c0,0,0,0,0,0c0.3,0,0.5,0.2,0.6,0.4C528-418.5,529.3-416.8,531-415.5z M529.6-415
				c-1.2-1-2.2-2.3-2.9-3.6c-0.7,1.4-1.7,2.6-2.9,3.6c1.2,1,2.2,2.2,2.9,3.6C527.4-412.8,528.4-414,529.6-415z"/>
			<path class="st1" d="M608.9-337.2c-0.1,0.1-0.3,0.1-0.4,0.2c-10.3,3.3-20.9,5.4-31.6,6.4c-9.4,0.9-18.9,0.9-28.3,0
				c-4.7-0.5-9.5-1.1-14.1-2.1c-2.2-0.5-4.1-1.4-5.4-3.3c-1.3-1.8-2-4.1-2.9-6.2c-3.7-8.7-6.6-17.8-8.8-27c-0.5-2.1-1.2-4.3-0.8-6.5
				c0.4-2.3,2.2-3.8,4.4-4.4c2.2-0.5,4.6-0.7,6.9-1c2.3-0.3,4.5-0.6,6.8-0.9c-1.6-5.7-0.1-12,4.8-16c1.7-1.4,3.5-2.3,5.5-2.9
				c-1.1-4.7,0.2-9.9,3.5-13.4c2.4-2.6,5.6-4,9.1-4.4c-0.6-2.2-0.6-4.5,0.1-6.7c1.1-3.2,3.3-5.6,6.5-6.9c2.7-1.1,5.2-2.1,6.9-4.7
				c1.4-2.1,2.3-4.8,1.9-7.4c-0.3-2,1.1-3.4,3.1-3.1c5,0.7,9.5,4.1,11.8,8.6c0.3,0.6,0.3,1.2,0.2,1.7c2.1-0.6,4.2-0.9,6.4-0.9
				c0.4,0,0.7,0,1.1,0.1c1-0.9,2-1.8,3-2.6c1.1-0.8,2.5-1.1,3.6,0c0.9,0.9,1.1,2.7,0,3.6c-0.2,0.1-0.4,0.3-0.5,0.4
				c4.3,1.7,8,4.9,10,9.3c2.4,5.4,2.5,11.9-0.1,17.2c1.7,0,3.4,0.4,4.9,1.4c5.1,3.2,7.1,9.9,6,15.6c-0.6,3.1-2.3,6-4.7,8
				c-1.8,1.5-3.9,2.5-6.1,3.2c3.3,0.8,5.9,3.4,7.2,6.7c1.6,4.1,1.1,8.7,1,12.9c-0.1,3.7-0.1,7.5-0.7,11.2
				C618.3-345,615.1-339.1,608.9-337.2z M528.2-350.8c6.3,0.9,12.7,1.8,19.1,2.5c11.3,1.2,22.8,1.8,34.2,0.7
				c11.3-1.1,22.4-4.1,32.6-9.2c0.3-0.1,0.5-0.2,0.8-0.1c0.1-1.9,0.1-3.9,0.2-5.8c0-0.8,0.1-1.6,0.1-2.4c-5.2,3.4-11,5.9-17,7.6
				c-5.7,1.6-11.5,2.4-17.4,3.1c-6.2,0.7-12.5,1.4-18.8,1.5c-12.1,0.2-24.2-1.3-35.9-4.3c0.6,2,1.3,3.9,2,5.9
				C528-351.2,528.1-351,528.2-350.8z M615.9-390.3C616-390.4,616.1-390.6,615.9-390.3L615.9-390.3z M601-431.4
				c-1.2-0.6-2.4-1-3.7-1.3c-3.1,3.1-5.8,6.6-8,10.4c3.7,0.9,7.3,2.6,10.3,5.2c2.4,2.1,4.4,4.7,5.7,7.6c0,0,0-0.1,0.1-0.1
				c1.9-2.5,3-5.5,3-8.6C608.6-423.7,605.9-428.8,601-431.4z M564.3-395.3c0.9,3.9,5,6.5,8.4,8.1c4.4,2.1,9.9,2.8,14.7,2.7
				c3.7-0.1,7.2-1.3,10-3.9c2.5-2.3,4.2-5.4,4.9-8.7c1.5-6.9-2.5-14.3-8.4-17.9c-2.1-1.3-4.5-2.2-6.9-2.6c-0.9,1.9-1.6,3.8-2.2,5.8
				c-1,3.1-5.8,1.8-4.9-1.3c0.5-1.6,1.1-3.1,1.7-4.6c-3.5,0.3-6.9,1.4-9.8,3.3c-5.7,3.6-9.9,10.8-8.3,17.6c0,0.1,0,0.2,0,0.3
				C563.9-396.2,564.2-395.8,564.3-395.3z M550-401.8c2.8,0,5.6,0.6,8.1,1.8c0-8.6,6-16.8,13.8-20.4c3.8-1.7,7.9-2.6,12-2.5
				c1.8-3.4,4-6.7,6.5-9.7c-1.7,0.4-3.3,1.1-4.7,2.1c-1.1,0.8-2.8,0.2-3.5-0.9c-0.7-1.2-0.2-2.7,0.9-3.5c0.3-0.2,0.7-0.5,1.1-0.7
				c-0.3-0.2-0.5-0.5-0.7-0.9c-1.2-2.5-3.2-4.3-5.6-5.3c-0.5,4.9-3.1,9.4-7.4,12c-2.4,1.5-5.7,1.7-7.3,4.2c-1.2,1.9-1.4,4.3-0.3,6.3
				c0.2,0.4,0.3,0.8,0.3,1.2c0.5,0.6,0.7,1.6,0.5,2.3c-0.3,1.4-1.8,2-3.1,1.8c-0.1,0-0.2,0-0.2,0c0,0-0.1,0-0.1,0
				c-0.2,0-0.5,0-0.7,0c-0.5,0-1,0-1.5,0c-0.1,0-0.1,0-0.1,0c0,0-0.1,0-0.1,0c-0.2,0-0.4,0.1-0.7,0.1c-0.4,0.1-0.9,0.2-1.3,0.4
				c-0.2,0.1-0.3,0.1-0.5,0.2c-0.1,0-0.3,0.1-0.4,0.2c-0.4,0.2-0.8,0.4-1.2,0.7c-0.2,0.1-0.4,0.3-0.6,0.4c0,0-0.1,0-0.1,0.1
				c0,0-0.1,0.1-0.1,0.1c-0.3,0.3-0.7,0.6-1,0.9c-0.1,0.1-0.2,0.3-0.3,0.4c0,0-0.2,0.3-0.3,0.3c-0.3,0.4-0.5,0.8-0.7,1.2
				c-0.1,0.2-0.2,0.4-0.3,0.6c0,0.1,0,0.1-0.1,0.1c0,0,0,0.1,0,0.1c-0.2,0.5-0.3,0.9-0.4,1.4c-0.1,0.2-0.1,0.4-0.1,0.7
				c0,0.1,0,0.2-0.1,0.3c0,0.4-0.1,0.9-0.1,1.3c0,0.5,0,0.9,0.1,1.4c0,0.1,0,0.3,0.1,0.3c0,0.2,0.1,0.4,0.2,0.7
				C550-402,550-401.9,550-401.8z M543.4-377.3c4.9,4.8,12.2,5.6,18.7,5.3c14.6-0.7,29.2-5.4,41.8-12.6c0.1,0,0.2-0.1,0.3-0.1
				c0.5-0.7,1.2-1.1,2.1-1.2c1-0.1,1.7-0.2,2.9-0.4c0.5-0.1,1-0.2,1.4-0.4c0.2-0.1,0.4-0.2,0.7-0.2c0,0,0.3-0.1,0.4-0.1
				c0.7-0.3,1.3-0.7,2-1.1c0.2-0.1,0.4-0.3,0.6-0.4c0,0,0,0,0,0c0.3-0.2,0.6-0.5,0.9-0.8c0.3-0.3,0.5-0.5,0.8-0.8
				c0.1-0.1,0.2-0.2,0.3-0.4c0.3-0.5,0.6-1,0.9-1.5c0,0,0,0,0,0c0,0,0,0,0,0c0-0.1,0.1-0.3,0.2-0.4c0.1-0.2,0.2-0.5,0.2-0.7
				c0.1-0.3,0.1-0.6,0.2-0.8c0-0.2,0.1-0.5,0.1-0.6c0.1-0.5,0.1-1.1,0.1-1.6c0-0.3,0-0.6,0-0.8c0-0.1,0-0.2,0-0.4
				c-0.1-0.6-0.2-1.2-0.4-1.8c-0.1-0.3-0.2-0.5-0.3-0.8c0-0.1-0.1-0.2-0.1-0.3c0,0,0,0,0,0c-0.3-0.5-0.5-1-0.8-1.5
				c-0.1-0.2-0.3-0.4-0.4-0.6c0,0,0-0.1,0-0.1c0,0-0.1-0.1-0.1-0.1c-0.4-0.4-0.8-0.7-1.1-1.1c-0.1,0-0.1-0.1-0.2-0.1
				c-0.2-0.1-0.4-0.3-0.6-0.4c-0.1-0.1-0.2-0.1-0.4-0.2c-0.2-0.1-0.4-0.1-0.6-0.2c-0.2-0.1-0.5-0.1-0.7-0.2c0.8,0.2,0,0-0.2,0
				c-0.3,0-0.6,0-0.9,0c0,0,0.1,0,0.1,0c-0.1,0-0.1,0-0.2,0c0,0,0,0,0,0c-0.1,0-0.3,0.1-0.1,0c0,0-0.1,0-0.1,0
				c-0.3,0.1-0.5,0.1-0.8,0.2c-0.2,0.1-1,0.4-0.4,0.1c-0.7,0.3-1.5,0.4-2.1,0.2c0.8,3.8,0.6,7.9-0.9,11.6c-1.6,4.1-4.4,7.7-8.1,10.2
				c-4.4,2.9-9.6,3.5-14.7,3c-5.2-0.5-10.5-1.5-15-4.2c-3.8-2.2-7.5-5.3-8.8-9.7c-0.3,0-0.6-0.1-0.9-0.3c-5.4-3.9-13.7-4.3-17.8,1.7
				C537.5-387.2,539.4-381.2,543.4-377.3z M522.1-371c0.5,2.3,1.1,4.7,1.8,7c0.4,1.3,0.8,2.6,1.2,3.9c6.5,1.8,13.1,3,19.8,3.8
				c6.4,0.7,12.8,1,19.3,0.8c6.1-0.2,12.3-0.9,18.4-1.7c5.6-0.7,11.3-1.7,16.7-3.3c5.6-1.7,10.8-4.2,15.6-7.5c0.1,0,0.1-0.1,0.2-0.1
				c0-0.6,0-1.2-0.1-1.7c-0.1-1.8-0.5-3.8-1.7-5.3c-0.8-1-2.3-2.1-3.7-1.9c-1.4,0.2-2.7-0.3-3.1-1.8c-0.1-0.4-0.1-0.9,0-1.3
				c-8.3,4.7-17.2,8.3-26.4,10.6c-13.7,3.4-34.4,6.4-43.2-7.6c-2.6,0.4-5.2,0.7-7.8,1.1c-2.3,0.3-4.9,0.4-7.2,1.1
				c-0.1,0-0.2,0.1-0.2,0.1c0,0.1-0.1,0.2-0.1,0.2c0,0.2,0,0.5,0,0.8C521.6-373,521.9-372,522.1-371z M606.1-341.6
				c0.2-0.1,0.4-0.2,0.7-0.3c5.6-1.3,7.3-7.1,7.7-12.4c-5.7,2.8-11.7,5.1-17.9,6.6c-11.2,2.8-22.8,3.5-34.2,3
				c-11.2-0.4-22.2-1.9-33.3-3.5c1.1,2.9,2.2,5.7,3.6,8.4c0.8,1.6,1.9,1.9,3.6,2.2c2.1,0.4,4.3,0.8,6.4,1.1c4.2,0.6,8.5,1,12.8,1.2
				C572.6-334.4,589.8-336.5,606.1-341.6z"/>
			<path class="st1" d="M610.8-405c-0.1,0-0.1,0-0.2,0C610.6-404.9,610.7-404.9,610.8-405C610.8-405,610.8-405,610.8-405z"/>
			<path class="st1" d="M588.6-392c0.5,0.5,1.3,0.5,1.8,0c1.4-1.4,2.8-2.8,4.1-4.2c0.5-0.5,0.5-1.3,0-1.8c-0.5-0.5-1.3-0.5-1.8,0
				c-1.4,1.4-2.8,2.8-4.1,4.2C588.2-393.3,588.1-392.5,588.6-392z"/>
			<path class="st1" d="M588-396.5c1.7-0.9,3.2-2.2,4.2-3.8c0.2-0.3,0.2-0.7,0.1-1c-0.1-0.3-0.3-0.6-0.6-0.8
				c-0.6-0.3-1.3-0.1-1.7,0.5c-0.1,0.1-0.1,0.2-0.2,0.3c-0.5,0.6-1,1.2-1.7,1.7c-0.5,0.3-1,0.7-1.5,0.9c-0.6,0.3-0.8,1.2-0.5,1.7
				C586.7-396.3,587.4-396.1,588-396.5z"/>
			<path class="st1" d="M627.8-340.3c0.9-1.4-1.3-2.6-2.2-1.3c-3.6,5.5-9,9.7-15.1,12c-0.6,0.2-1.1,0.9-0.9,1.6
				c0.2,0.6,0.9,1.1,1.6,0.9C618-329.7,623.8-334.3,627.8-340.3z"/>
			<path class="st1" d="M635-338.6c-0.4-0.4-1.4-0.5-1.8,0c-3.8,4.9-8.4,9-13.6,12.2c-1.4,0.8-0.1,3,1.3,2.2
				c5.4-3.3,10.2-7.6,14.1-12.6C635.5-337.4,635.6-338.1,635-338.6z"/>
			<path class="st1" d="M511.5-496.2c-0.1,0.4-0.3,0.8-0.5,1.1c-4.1,8.8-14.3,12.6-23,15.1c-0.1,0-0.2,0-0.2,0
				c-0.8,2.3-2.2,4.4-4.3,6.1c-4.3,3.4-9.9,4.9-14.9,6.7c-5.3,2-11.2,4-16.6,1.2c-3.9-2-6.1-6-7.4-10c-7.8,1.5-16.2,1.5-23.1-2.9
				c-3-1.9-5.5-4.4-7.1-7.6c-0.4-0.7-0.7-1.4-1-2.2c-9.9,3-17.3-7.5-19.1-15.8c-1-4.6-0.7-9.3,1.5-13.5c1.9-3.7,5.2-6.6,9.2-7.8
				c0.2-0.1,0.4-0.1,0.6-0.1c0.3-4.5,1.6-8.9,3.9-12.9c2.9-5,8-9.3,13.8-9.5c-0.4-1.3-0.7-2.6-0.6-4.1c0-0.5,0.2-1,0.5-1.4
				c0.3-1.6,0.7-3,1.6-4.4c2-3.3,5.2-5.8,8.5-7.7c3.7-2.2,7.9-3.7,12-4.8c6.4-1.7,13.2-1.9,19.8-1.6c6.3,0.3,14.2,1.1,18.8,6
				c0.9,1,1.6,2,2.1,3.2c6-2.8,13.5-1.8,19.3,1.1c5.7,2.9,10.2,8.1,11.6,14.3c8.1-4.4,18.8-2.9,25.1,4.4c8.2,9.4,5.6,23.5-0.7,33.2
				C534.8-500.2,523.4-494.1,511.5-496.2z M479.1-563.8C479.1-563.8,479.1-563.8,479.1-563.8L479.1-563.8z M411.9-493.3
				c-0.2-0.9-0.4-1.8-0.6-2.7c-0.6-3.4-1-6.9-1.9-10.2c-1-3.7-2.4-7.3-3.2-11c-0.2-1.1-0.4-2.2-0.5-3.4c-5.8,2.3-7.7,9.2-6.5,14.9
				C400.3-500.2,404.9-491.4,411.9-493.3z M443.4-480.7c-0.8-3.8-1.3-7.7-1.9-11.4c-1.1-6.2-2.1-12.4-3.2-18.6
				c-0.9-5.5-1.7-11.1-3.2-16.6c-1.3-4.9-3.3-9.4-6.7-13.3c-0.7-0.8-1.4-1.6-2.1-2.4c-0.3,0.1-0.7,0.1-1.1,0
				c-6.3-1.5-11.4,5.6-13.2,10.7c-1,2.9-1.6,5.8-1.5,8.9c0,3.4,0.9,6.6,1.9,9.8c1,3.1,2,6.2,2.6,9.4c0.6,3.1,1,6.2,1.6,9.2
				c0.6,2.8,1.5,5.4,3,7.8c1.6,2.4,3.9,4.1,6.4,5.4C431.4-479.4,437.6-479.6,443.4-480.7z M483.5-488.9c-0.3-2.7-0.8-5.5-1.3-8.2
				c-1.1-5.5-2.5-11-3.6-16.5c-2.2-10.6-3.6-21.8-0.9-32.5c0.6-2.6,1.6-5.1,2.7-7.5c0.5-1.2,1-2.4,1.3-3.7c0.1-0.5,0.2-0.9,0.2-1.4
				c0,0-0.1-0.8-0.1-0.8c-0.1-0.3-0.1-0.7-0.2-1c0-0.1-0.1-0.3-0.1-0.4c0,0,0-0.1,0-0.1c0,0,0,0,0,0c-0.1-0.3-0.3-0.6-0.5-0.9
				c-0.1-0.1-0.3-0.4-0.3-0.5c-0.4-0.5-0.8-0.9-1.3-1.3c0,0,0,0,0,0c-0.1-0.1-0.2-0.2-0.3-0.2c-0.3-0.2-0.6-0.4-0.9-0.5
				c-0.3-0.2-0.7-0.4-1-0.5c-0.2-0.1-0.3-0.2-0.5-0.2c0,0-0.1,0-0.1,0c-0.6-0.2-1.2-0.5-1.9-0.6c-1.5-0.4-3-0.7-4.6-1
				c-0.1,0-0.5-0.1-0.5-0.1c-0.2,0-0.4,0-0.5-0.1c-0.4,0-0.7-0.1-1.1-0.1c-0.8-0.1-1.5-0.1-2.3-0.2c-1.5-0.1-3.1-0.1-4.6-0.1
				c-6.5,0.1-12.3,0.6-18.5,2.8c-3.4,1.2-7,2.9-9.8,5.1c-0.6,0.5-1.3,1.1-1.8,1.6c-0.5,0.5-1.1,1.2-1.3,1.5
				c-0.4,0.6-0.8,1.2-1.1,1.9c0,0-0.2,0.6-0.2,0.7c0,0.2-0.2,1.1-0.2,0.6c-0.1,0.4-0.2,0.8-0.3,1.1c0,1.6,0.4,2.9,1.4,4.3
				c1,1.5,2.4,2.8,3.6,4.2c1.6,1.9,3,3.8,4.1,6c2.3,4.6,3.6,9.6,4.5,14.6c2.1,11.3,3.9,22.7,5.9,34.1c1.2,6.9,2,19.6,11.6,19.1
				c2.5-0.1,4.9-1.1,7.2-1.9c2.7-1,5.4-2,8.1-3c3.7-1.4,8-3.3,9.2-7.5C483.9-484.2,483.7-486.6,483.5-488.9z M508.1-537
				c0.5-2.9,2.1-5.4,4.2-7.5c0-0.1-0.1-0.2-0.1-0.3c-0.8-5.7-4.3-10.1-9.3-12.7c-4.7-2.5-11.2-3.3-16.2-0.4c0,0.7-0.1,1.5-0.3,2.2
				c-0.7,2.7-2.1,5.2-3,7.8c-0.9,2.5-1.5,5.1-1.8,7.8c-1.6,11.7,1.3,23.3,3.9,34.7c1.3,5.8,2.6,11.7,3.1,17.7
				c0.1,0.8,0.1,1.6,0.1,2.4c4.6-1.4,9.2-3.1,13-6.1c1.9-1.5,3.5-3.3,4.6-5.5c1.5-2.9,1.7-6.3,1.7-9.5c0-6.8-0.2-13.7-0.2-20.5
				C507.8-530.3,507.5-533.7,508.1-537z M512.7-501.1c11.8,2.1,22.3-6.2,26.8-16.6c2.1-4.9,3.4-10.7,2-16c-1.2-4.5-4.3-8.1-8.4-10.2
				c-4-2-9-1.9-13.1,0.1c-2,1-3.9,2.3-5.3,4.1c-1.7,2.2-1.9,4.8-1.9,7.5c0,6.4,0.2,12.8,0.2,19.1C513.1-509,513.3-505,512.7-501.1z"
				/>
			<path class="st1" d="M477.5-508.3c-3.8-13.2-4.7-27.3-2.6-40.8c0.6-3.9,1.5-7.7,2.6-11.5c0.5-1.6-2-2.2-2.4-0.7
				c-3.9,13.6-4.8,28.1-2.6,42.1c0.6,3.9,1.5,7.8,2.6,11.6C475.5-506.1,477.9-506.8,477.5-508.3z"/>
			<path class="st1" d="M478.4-499.9c-0.2-0.2-0.6-0.4-0.9-0.4c-0.6,0-1.3,0.6-1.3,1.3c0.1,1.4,0.3,2.7,0.4,4.1
				c0,0.3,0.1,0.6,0.4,0.9c0.2,0.2,0.6,0.4,0.9,0.4c0.6,0,1.3-0.6,1.3-1.3c-0.1-1.4-0.3-2.7-0.4-4.1
				C478.7-499.3,478.6-499.6,478.4-499.9z"/>
			<path class="st1" d="M467.9-551.2c-0.7,0-1.2,0.6-1.3,1.3c-0.1,3.6-0.3,7.1-0.4,10.7c0,0.7,0.6,1.3,1.3,1.3
				c0.7,0,1.2-0.6,1.3-1.3c0.1-3.6,0.3-7.1,0.4-10.7C469.2-550.6,468.6-551.2,467.9-551.2z"/>
			<path class="st1" d="M503.6-550.7c-1.9,8.5-2.6,17.3-2.2,26c0.1,2.5,0.3,5,0.6,7.4c0.1,0.7,0.5,1.3,1.3,1.3
				c0.6,0,1.3-0.6,1.3-1.3c-1-8.5-1-17.1,0.2-25.5c0.3-2.4,0.8-4.8,1.3-7.2C506.3-551.6,503.9-552.3,503.6-550.7z"/>
			<path class="st1" d="M504-510.2c-0.7,0-1.3,0.6-1.3,1.3c0,2.1,0,4.1,0,6.2c0,0.7,0.6,1.3,1.3,1.3c0.7,0,1.3-0.6,1.3-1.3
				c0-2.1,0-4.1,0-6.2C505.3-509.6,504.7-510.3,504-510.2z"/>
			<path class="st1" d="M419.5-505.6c-0.1-0.7-0.5-1.3-1.3-1.3c-0.6,0-1.3,0.6-1.3,1.3c0.8,7,1.8,14.7,7,19.9
				c1.2,1.1,2.9-0.6,1.8-1.8C421.1-492.2,420.2-499.3,419.5-505.6z"/>
			<path class="st1" d="M433.1-483.1c-0.1,0-0.2,0-0.4,0c-0.3,0-0.5-0.1-0.8-0.2c-0.2-0.1-0.5-0.3-0.7-0.4c-0.1-0.1-0.2-0.2-0.3-0.3
				c-0.5-0.5-1.3-0.5-1.8,0c-0.5,0.5-0.5,1.3,0,1.8c1,1.1,2.5,1.7,4,1.7c0.7,0,1.3-0.6,1.3-1.3C434.4-482.5,433.8-483.1,433.1-483.1
				z"/>
			<path class="st1" d="M514.4-566.1c-0.2-0.1-0.3-0.3-0.3-0.5c0-0.2,0.1-0.4,0.3-0.5c3.5-2.6,6.3-6.2,7.9-10.3
				c0.1-0.2,0.3-0.4,0.6-0.4h0c0.3,0,0.5,0.2,0.6,0.4c1.6,4.1,4.4,7.6,7.9,10.3c0.2,0.1,0.3,0.3,0.3,0.5c0,0.2-0.1,0.4-0.3,0.5
				c-3.5,2.6-6.3,6.2-7.9,10.3c-0.1,0.2-0.3,0.4-0.6,0.4h0c-0.3,0-0.5-0.2-0.6-0.4C520.7-560,518-563.5,514.4-566.1z M515.8-566.6
				c3,2.4,5.5,5.5,7.1,8.9c1.6-3.5,4.1-6.5,7.1-8.9c-3-2.4-5.5-5.5-7.1-9C521.3-572.1,518.9-569,515.8-566.6z"/>
			<path class="st1" d="M498.3-579.7c-0.2-0.1-0.3-0.3-0.3-0.5c0-0.2,0.1-0.4,0.3-0.5c1.7-1.2,3-2.9,3.7-4.9
				c0.1-0.2,0.3-0.4,0.6-0.4c0,0,0,0,0,0c0.3,0,0.5,0.2,0.6,0.4c0.8,1.9,2.1,3.6,3.7,4.9c0.2,0.1,0.3,0.3,0.3,0.5
				c0,0.2-0.1,0.4-0.3,0.5c-1.7,1.2-3,2.9-3.7,4.8c-0.1,0.2-0.3,0.4-0.6,0.4c0,0,0,0,0,0c-0.3,0-0.5-0.2-0.6-0.4
				C501.3-576.8,500-578.5,498.3-579.7z M499.7-580.2c1.2,1,2.2,2.2,2.9,3.6c0.7-1.4,1.7-2.6,2.9-3.6c-1.2-1-2.2-2.3-2.9-3.6
				C501.9-582.5,500.9-581.3,499.7-580.2z"/>
			<path class="st1" d="M315.7-470.1c-0.2-0.1-0.3-0.3-0.3-0.5c0-0.2,0.1-0.4,0.3-0.5c3.5-2.6,6.3-6.2,7.9-10.3
				c0.1-0.2,0.3-0.4,0.6-0.4h0c0.3,0,0.5,0.2,0.6,0.4c1.6,4.1,4.4,7.6,7.9,10.3c0.2,0.1,0.3,0.3,0.3,0.5c0,0.2-0.1,0.4-0.3,0.5
				c-3.5,2.6-6.3,6.2-7.9,10.3c-0.1,0.2-0.3,0.4-0.6,0.4h0c-0.3,0-0.5-0.2-0.6-0.4C322-464,319.2-467.5,315.7-470.1z M317.1-470.6
				c3,2.4,5.5,5.5,7.1,8.9c1.6-3.5,4.1-6.5,7.1-8.9c-3-2.4-5.5-5.5-7.1-9C322.5-476.1,320.1-473,317.1-470.6z"/>
			<path class="st1" d="M295.7-469.5c0.2,0.1,0.3,0.3,0.3,0.5c0,0.2-0.1,0.4-0.3,0.5c-1.7,1.2-3,2.9-3.7,4.8
				c-0.1,0.2-0.3,0.4-0.6,0.4h0c-0.3,0-0.5-0.2-0.6-0.4c-0.8-1.9-2.1-3.6-3.7-4.8c-0.2-0.1-0.3-0.3-0.3-0.5c0-0.2,0.1-0.4,0.3-0.5
				c1.7-1.2,3-2.9,3.7-4.9c0.1-0.2,0.3-0.4,0.6-0.4h0c0.3,0,0.5,0.2,0.6,0.4C292.8-472.4,294.1-470.7,295.7-469.5z M294.3-468.9
				c-1.2-1-2.2-2.3-2.9-3.6c-0.7,1.4-1.7,2.6-2.9,3.6c1.2,1,2.2,2.2,2.9,3.6C292.2-466.7,293.1-467.9,294.3-468.9z"/>
			<path class="st1" d="M310.5-459.5c1.8,0,3.3,1.5,3.3,3.3c0,1.8-1.5,3.3-3.3,3.3s-3.3-1.5-3.3-3.3
				C307.1-458,308.6-459.5,310.5-459.5z M310.5-458.2c-1.2,0-2.1,0.9-2.1,2.1s0.9,2.1,2.1,2.1c1.2,0,2.1-0.9,2.1-2.1
				S311.6-458.2,310.5-458.2z"/>
			<path class="st1" d="M481.1-324.4c-0.7,0-1.3,0.6-1.3,1.3c0,1.3,0,2.6,0,4c0,0.7,0.6,1.3,1.3,1.3c0.7,0,1.3-0.6,1.3-1.3
				c0-1.3,0-2.6,0-4C482.4-323.8,481.8-324.4,481.1-324.4z"/>
			<path class="st1" d="M481.1-313.2c-0.7,0-1.3,0.6-1.3,1.3c0,1.3,0,2.6,0,4c0,0.7,0.6,1.3,1.3,1.3c0.7,0,1.3-0.6,1.3-1.3
				c0-1.3,0-2.6,0-4C482.4-312.6,481.8-313.2,481.1-313.2z"/>
			<path class="st1" d="M488.7-316.8c-1.3,0-2.6,0-4,0c-0.7,0-1.3,0.6-1.3,1.3c0,0.7,0.6,1.3,1.3,1.3c1.3,0,2.6,0,4,0
				c0.7,0,1.3-0.6,1.3-1.3C489.9-316.2,489.4-316.8,488.7-316.8z"/>
			<path class="st1" d="M477.5-316.8c-1.3,0-2.6,0-4,0c-0.7,0-1.3,0.6-1.3,1.3c0,0.7,0.6,1.3,1.3,1.3c1.3,0,2.6,0,4,0
				c0.7,0,1.3-0.6,1.3-1.3C478.7-316.2,478.2-316.8,477.5-316.8z"/>
			<path class="st1" d="M303.2-558.6c0.7,0,1.3-0.6,1.3-1.3c0-1.3,0-2.6,0-4c0-0.7-0.6-1.3-1.3-1.3c-0.7,0-1.3,0.6-1.3,1.3
				c0,1.3,0,2.6,0,4C302-559.2,302.5-558.5,303.2-558.6z"/>
			<path class="st1" d="M303.2-547.3c0.7,0,1.3-0.6,1.3-1.3c0-1.3,0-2.6,0-4c0-0.7-0.6-1.3-1.3-1.3c-0.7,0-1.3,0.6-1.3,1.3
				c0,1.3,0,2.6,0,4C302-547.9,302.5-547.3,303.2-547.3z"/>
			<path class="st1" d="M306.8-554.9c1.3,0,2.6,0,4,0c0.7,0,1.3-0.6,1.3-1.3c0-0.7-0.6-1.3-1.3-1.3c-1.3,0-2.6,0-4,0
				c-0.7,0-1.3,0.6-1.3,1.3C305.6-555.5,306.1-554.9,306.8-554.9z"/>
			<path class="st1" d="M299.6-557.5c-1.3,0-2.6,0-4,0c-0.7,0-1.3,0.6-1.3,1.3c0,0.7,0.6,1.3,1.3,1.3c1.3,0,2.6,0,4,0
				c0.7,0,1.3-0.6,1.3-1.3C300.8-556.9,300.3-557.5,299.6-557.5z"/>
			<path class="st1" d="M270.6-360.4c0,2.5-2,4.5-4.5,4.5c-2.5,0-4.5-2-4.5-4.5c0-2.5,2-4.5,4.5-4.5
				C268.6-364.9,270.6-362.9,270.6-360.4z M268.1-360.4c0-1.1-0.9-2-2-2s-2,0.9-2,2c0,1.1,0.9,2,2,2S268.1-359.3,268.1-360.4z"/>
			<path class="st1" d="M368.5-580.2c0-2.5,2-4.5,4.5-4.5c2.5,0,4.5,2,4.5,4.5c0,2.5-2,4.5-4.5,4.5
				C370.5-575.7,368.5-577.7,368.5-580.2z M371-580.2c0,1.1,0.9,2,2,2s2-0.9,2-2c0-1.1-0.9-2-2-2S371-581.2,371-580.2z"/>
			<path class="st1" d="M602.4-472.3c0-2.5,2-4.5,4.5-4.5c2.5,0,4.5,2,4.5,4.5c0,2.5-2,4.5-4.5,4.5
				C604.4-467.8,602.4-469.9,602.4-472.3z M604.9-472.3c0,1.1,0.9,2,2,2c1.1,0,2-0.9,2-2c0-1.1-0.9-2-2-2
				C605.8-474.3,604.9-473.4,604.9-472.3z"/>
		</g>
		<g>
			<path class="st1" d="M137.2-580.5c0.2,0.1,0.3,0.3,0.3,0.5c0,0.2-0.1,0.4-0.3,0.5c-1.7,1.2-3,2.9-3.7,4.8
				c-0.1,0.2-0.3,0.4-0.6,0.4c0,0,0,0,0,0c-0.3,0-0.5-0.2-0.6-0.4c-0.8-1.9-2.1-3.6-3.7-4.8c-0.2-0.1-0.3-0.3-0.3-0.5
				c0-0.2,0.1-0.4,0.3-0.5c1.7-1.2,3-2.9,3.7-4.9c0.1-0.2,0.3-0.4,0.6-0.4c0,0,0,0,0,0c0.3,0,0.5,0.2,0.6,0.4
				C134.3-583.5,135.6-581.8,137.2-580.5z M135.9-580c-1.2-1-2.2-2.3-2.9-3.6c-0.7,1.4-1.7,2.6-2.9,3.6c1.2,1,2.2,2.2,2.9,3.6
				C133.7-577.8,134.7-579,135.9-580z"/>
			<path class="st1" d="M215.2-502.2c-0.1,0.1-0.3,0.1-0.4,0.2c-10.3,3.3-20.9,5.4-31.6,6.4c-9.4,0.9-18.9,0.9-28.3,0
				c-4.7-0.5-9.5-1.1-14.1-2.1c-2.2-0.5-4.1-1.4-5.4-3.3c-1.3-1.8-2-4.1-2.9-6.2c-3.7-8.7-6.6-17.8-8.8-27c-0.5-2.1-1.2-4.3-0.8-6.5
				c0.4-2.3,2.2-3.8,4.4-4.4c2.2-0.5,4.6-0.7,6.9-1c2.3-0.3,4.5-0.6,6.8-0.9c-1.6-5.7-0.1-12,4.8-16c1.7-1.4,3.5-2.3,5.5-2.9
				c-1.1-4.7,0.2-9.9,3.5-13.4c2.4-2.6,5.6-4,9.1-4.4c-0.6-2.2-0.6-4.5,0.1-6.7c1.1-3.2,3.3-5.6,6.5-6.9c2.7-1.1,5.2-2.1,6.9-4.7
				c1.4-2.1,2.3-4.8,1.9-7.4c-0.3-2,1.1-3.4,3.1-3.1c5,0.7,9.5,4.1,11.8,8.6c0.3,0.6,0.3,1.2,0.2,1.7c2.1-0.6,4.2-0.9,6.4-0.9
				c0.4,0,0.7,0,1.1,0.1c1-0.9,2-1.8,3-2.6c1.1-0.8,2.5-1.1,3.6,0c0.9,0.9,1.1,2.7,0,3.6c-0.2,0.1-0.4,0.3-0.5,0.4
				c4.3,1.7,8,4.9,10,9.3c2.4,5.4,2.5,11.9-0.1,17.2c1.7,0,3.4,0.4,4.9,1.4c5.1,3.2,7.1,9.9,6,15.6c-0.6,3.1-2.3,6-4.7,8
				c-1.8,1.5-3.9,2.5-6.1,3.2c3.3,0.8,5.9,3.4,7.2,6.7c1.6,4.1,1.1,8.7,1,12.9c-0.1,3.7-0.1,7.5-0.7,11.2
				C224.5-510,221.3-504.1,215.2-502.2z M134.4-515.8c6.3,0.9,12.7,1.8,19.1,2.5c11.3,1.2,22.8,1.8,34.2,0.7
				c11.3-1.1,22.4-4.1,32.6-9.2c0.3-0.1,0.5-0.2,0.8-0.1c0.1-1.9,0.1-3.9,0.2-5.8c0-0.8,0.1-1.6,0.1-2.4c-5.2,3.4-11,5.9-17,7.6
				c-5.7,1.6-11.5,2.4-17.4,3.1c-6.2,0.7-12.5,1.4-18.8,1.5c-12.1,0.2-24.2-1.3-35.9-4.3c0.6,2,1.3,3.9,2,5.9
				C134.3-516.2,134.3-516,134.4-515.8z M222.1-555.3C222.2-555.4,222.4-555.5,222.1-555.3L222.1-555.3z M207.3-596.4
				c-1.2-0.6-2.4-1-3.7-1.3c-3.1,3.1-5.8,6.6-8,10.4c3.7,0.9,7.3,2.6,10.3,5.2c2.4,2.1,4.4,4.7,5.7,7.6c0,0,0-0.1,0.1-0.1
				c1.9-2.5,3-5.5,3-8.6C214.8-588.7,212.2-593.8,207.3-596.4z M170.6-560.3c0.9,3.9,5,6.5,8.4,8.1c4.4,2.1,9.9,2.8,14.7,2.7
				c3.7-0.1,7.2-1.3,10-3.9c2.5-2.3,4.2-5.4,4.9-8.7c1.5-6.9-2.5-14.3-8.4-17.9c-2.1-1.3-4.5-2.2-6.9-2.6c-0.9,1.9-1.6,3.8-2.2,5.8
				c-1,3.1-5.8,1.8-4.9-1.3c0.5-1.6,1.1-3.1,1.7-4.6c-3.5,0.3-6.9,1.4-9.8,3.3c-5.7,3.6-9.9,10.8-8.3,17.6c0,0.1,0,0.2,0,0.3
				C170.2-561.2,170.4-560.8,170.6-560.3z M156.3-566.7c2.8,0,5.6,0.6,8.1,1.8c0-8.6,6-16.8,13.8-20.4c3.8-1.7,7.9-2.6,12-2.5
				c1.8-3.4,4-6.7,6.5-9.7c-1.7,0.4-3.3,1.1-4.7,2.1c-1.1,0.8-2.8,0.2-3.5-0.9c-0.7-1.2-0.2-2.7,0.9-3.5c0.3-0.2,0.7-0.5,1.1-0.7
				c-0.3-0.2-0.5-0.5-0.7-0.9c-1.2-2.5-3.2-4.3-5.6-5.3c-0.5,4.9-3.1,9.4-7.4,12c-2.4,1.5-5.7,1.7-7.3,4.2c-1.2,1.9-1.4,4.3-0.3,6.3
				c0.2,0.4,0.3,0.8,0.3,1.2c0.5,0.6,0.7,1.6,0.5,2.3c-0.3,1.4-1.8,2-3.1,1.8c-0.1,0-0.2,0-0.2,0c0,0-0.1,0-0.1,0
				c-0.2,0-0.5,0-0.7,0c-0.5,0-1,0-1.5,0c-0.1,0-0.1,0-0.1,0c0,0-0.1,0-0.1,0c-0.2,0-0.4,0.1-0.7,0.1c-0.4,0.1-0.9,0.2-1.3,0.4
				c-0.2,0.1-0.3,0.1-0.5,0.2c-0.1,0-0.3,0.1-0.4,0.2c-0.4,0.2-0.8,0.4-1.2,0.7c-0.2,0.1-0.4,0.3-0.6,0.4c0,0-0.1,0-0.1,0.1
				c0,0-0.1,0.1-0.1,0.1c-0.3,0.3-0.7,0.6-1,0.9c-0.1,0.1-0.2,0.3-0.3,0.4c0,0-0.2,0.3-0.3,0.3c-0.3,0.4-0.5,0.8-0.7,1.2
				c-0.1,0.2-0.2,0.4-0.3,0.6c0,0.1,0,0.1-0.1,0.1c0,0,0,0.1,0,0.1c-0.2,0.5-0.3,0.9-0.4,1.4c-0.1,0.2-0.1,0.4-0.1,0.7
				c0,0.1,0,0.2-0.1,0.3c0,0.4-0.1,0.9-0.1,1.3c0,0.5,0,0.9,0.1,1.4c0,0.1,0,0.3,0.1,0.3c0,0.2,0.1,0.4,0.2,0.7
				C156.3-566.9,156.3-566.8,156.3-566.7z M149.7-542.3c4.9,4.8,12.2,5.6,18.7,5.3c14.6-0.7,29.2-5.4,41.8-12.6
				c0.1,0,0.2-0.1,0.3-0.1c0.5-0.7,1.2-1.1,2.1-1.2c1-0.1,1.7-0.2,2.9-0.4c0.5-0.1,1-0.2,1.4-0.4c0.2-0.1,0.4-0.2,0.7-0.2
				c0,0,0.3-0.1,0.4-0.1c0.7-0.3,1.3-0.7,2-1.1c0.2-0.1,0.4-0.3,0.6-0.4c0,0,0,0,0,0c0.3-0.2,0.6-0.5,0.9-0.8
				c0.3-0.3,0.5-0.5,0.8-0.8c0.1-0.1,0.2-0.2,0.3-0.4c0.3-0.5,0.6-1,0.9-1.5c0,0,0,0,0,0c0,0,0,0,0,0c0-0.1,0.1-0.3,0.2-0.4
				c0.1-0.2,0.2-0.5,0.2-0.7c0.1-0.3,0.1-0.6,0.2-0.8c0-0.2,0.1-0.5,0.1-0.6c0.1-0.5,0.1-1.1,0.1-1.6c0-0.3,0-0.6,0-0.8
				c0-0.1,0-0.2,0-0.4c-0.1-0.6-0.2-1.2-0.4-1.8c-0.1-0.3-0.2-0.5-0.3-0.8c0-0.1-0.1-0.2-0.1-0.3c0,0,0,0,0,0
				c-0.3-0.5-0.5-1-0.8-1.5c-0.1-0.2-0.3-0.4-0.4-0.6c0,0,0-0.1,0-0.1c0,0-0.1-0.1-0.1-0.1c-0.4-0.4-0.8-0.7-1.1-1.1
				c-0.1,0-0.1-0.1-0.2-0.1c-0.2-0.1-0.4-0.3-0.6-0.4c-0.1-0.1-0.2-0.1-0.4-0.2c-0.2-0.1-0.4-0.1-0.6-0.2c-0.2-0.1-0.5-0.1-0.7-0.2
				c0.8,0.2,0,0-0.2,0c-0.3,0-0.6,0-0.9,0c0,0,0.1,0,0.1,0c-0.1,0-0.1,0-0.2,0c0,0,0,0,0,0c-0.1,0-0.3,0.1-0.1,0c0,0-0.1,0-0.1,0
				c-0.3,0.1-0.5,0.1-0.8,0.2c-0.2,0.1-1,0.4-0.4,0.1c-0.7,0.3-1.5,0.4-2.1,0.2c0.8,3.8,0.6,7.9-0.9,11.6c-1.6,4.1-4.4,7.7-8.1,10.2
				c-4.4,2.9-9.6,3.5-14.7,3c-5.2-0.5-10.5-1.5-15-4.2c-3.8-2.2-7.5-5.3-8.8-9.7c-0.3,0-0.6-0.1-0.9-0.3c-5.4-3.9-13.7-4.3-17.8,1.7
				C143.7-552.2,145.7-546.1,149.7-542.3z M128.4-536c0.5,2.3,1.1,4.7,1.8,7c0.4,1.3,0.8,2.6,1.2,3.9c6.5,1.8,13.1,3,19.8,3.8
				c6.4,0.7,12.8,1,19.3,0.8c6.1-0.2,12.3-0.9,18.4-1.7c5.6-0.7,11.3-1.7,16.7-3.3c5.6-1.7,10.8-4.2,15.6-7.5c0.1,0,0.1-0.1,0.2-0.1
				c0-0.6,0-1.2-0.1-1.7c-0.1-1.8-0.5-3.8-1.7-5.3c-0.8-1-2.3-2.1-3.7-1.9c-1.4,0.2-2.7-0.3-3.1-1.8c-0.1-0.4-0.1-0.9,0-1.3
				c-8.3,4.7-17.2,8.3-26.4,10.6c-13.7,3.4-34.4,6.4-43.2-7.6c-2.6,0.4-5.2,0.7-7.8,1.1c-2.3,0.3-4.9,0.4-7.2,1.1
				c-0.1,0-0.2,0.1-0.2,0.1c0,0.1-0.1,0.2-0.1,0.2c0,0.2,0,0.5,0,0.8C127.8-538,128.1-537,128.4-536z M212.4-506.6
				c0.2-0.1,0.4-0.2,0.7-0.3c5.6-1.3,7.3-7.1,7.7-12.4c-5.7,2.8-11.7,5.1-17.9,6.6c-11.2,2.8-22.8,3.5-34.2,3
				c-11.2-0.4-22.2-1.9-33.3-3.5c1.1,2.9,2.2,5.7,3.6,8.4c0.8,1.6,1.9,1.9,3.6,2.2c2.1,0.4,4.3,0.8,6.4,1.1c4.2,0.6,8.5,1,12.8,1.2
				C178.9-499.3,196-501.5,212.4-506.6z"/>
			<path class="st1" d="M217-569.9c-0.1,0-0.1,0-0.2,0C216.9-569.9,216.9-569.9,217-569.9C217-569.9,217-569.9,217-569.9z"/>
			<path class="st1" d="M194.9-557c0.5,0.5,1.3,0.5,1.8,0c1.4-1.4,2.8-2.8,4.1-4.2c0.5-0.5,0.5-1.3,0-1.8c-0.5-0.5-1.3-0.5-1.8,0
				c-1.4,1.4-2.8,2.8-4.1,4.2C194.4-558.3,194.4-557.4,194.9-557z"/>
			<path class="st1" d="M194.3-561.5c1.7-0.9,3.2-2.2,4.2-3.8c0.2-0.3,0.2-0.7,0.1-1c-0.1-0.3-0.3-0.6-0.6-0.8
				c-0.6-0.3-1.3-0.1-1.7,0.5c-0.1,0.1-0.1,0.2-0.2,0.3c-0.5,0.6-1,1.2-1.7,1.7c-0.5,0.3-1,0.7-1.5,0.9c-0.6,0.3-0.8,1.2-0.5,1.7
				C192.9-561.3,193.6-561.1,194.3-561.5z"/>
			<path class="st1" d="M234.1-505.3c0.9-1.4-1.3-2.6-2.2-1.3c-3.6,5.5-9,9.7-15.1,12c-0.6,0.2-1.1,0.9-0.9,1.6
				c0.2,0.6,0.9,1.1,1.6,0.9C224.2-494.6,230.1-499.3,234.1-505.3z"/>
			<path class="st1" d="M241.3-503.6c-0.4-0.4-1.4-0.5-1.8,0c-3.8,4.9-8.4,9-13.6,12.2c-1.4,0.8-0.1,3,1.3,2.2
				c5.4-3.3,10.2-7.6,14.1-12.6C241.7-502.4,241.8-503.1,241.3-503.6z"/>
			<path class="st1" d="M117.7-661.2c-0.1,0.4-0.3,0.8-0.5,1.1c-4.1,8.8-14.3,12.6-23,15.1c-0.1,0-0.2,0-0.2,0
				c-0.8,2.3-2.2,4.4-4.3,6.1c-4.3,3.4-9.9,4.9-14.9,6.7c-5.3,2-11.2,4-16.6,1.2c-3.9-2-6.1-6-7.4-10c-7.8,1.5-16.2,1.5-23.1-2.9
				c-3-1.9-5.5-4.4-7.1-7.6c-0.4-0.7-0.7-1.4-1-2.2c-9.9,3-17.3-7.5-19.1-15.8c-1-4.6-0.7-9.3,1.5-13.5c1.9-3.7,5.2-6.6,9.2-7.8
				c0.2-0.1,0.4-0.1,0.6-0.1c0.3-4.5,1.6-8.9,3.9-12.8c2.9-5,8-9.3,13.8-9.5c-0.4-1.3-0.7-2.6-0.6-4.1c0-0.5,0.2-1,0.5-1.4
				c0.3-1.6,0.7-3,1.6-4.4c2-3.3,5.2-5.8,8.5-7.7c3.7-2.2,7.9-3.7,12-4.8c6.4-1.7,13.2-1.9,19.8-1.6c6.3,0.3,14.2,1.1,18.8,6
				c0.9,1,1.6,2,2.1,3.2c6-2.8,13.5-1.8,19.3,1.1c5.7,2.9,10.2,8.1,11.6,14.3c8.1-4.4,18.8-2.9,25.1,4.4c8.2,9.4,5.6,23.5-0.7,33.2
				C141.1-665.2,129.6-659.1,117.7-661.2z M85.4-728.8C85.4-728.8,85.4-728.8,85.4-728.8L85.4-728.8z M18.1-658.3
				c-0.2-0.9-0.4-1.8-0.6-2.7c-0.6-3.4-1-6.9-1.9-10.2c-1-3.7-2.4-7.3-3.2-11c-0.2-1.1-0.4-2.2-0.5-3.4c-5.8,2.3-7.7,9.2-6.5,14.9
				C6.6-665.2,11.2-656.4,18.1-658.3z M49.6-645.7c-0.8-3.8-1.3-7.7-1.9-11.4c-1.1-6.2-2.1-12.4-3.2-18.6
				c-0.9-5.5-1.7-11.1-3.2-16.6c-1.3-4.9-3.3-9.4-6.7-13.3c-0.7-0.8-1.4-1.6-2.1-2.4c-0.3,0.1-0.7,0.1-1.1,0
				c-6.3-1.5-11.4,5.6-13.2,10.7c-1,2.9-1.6,5.8-1.5,8.9c0,3.4,0.9,6.6,1.9,9.8c1,3.1,2,6.2,2.6,9.4c0.6,3.1,1,6.2,1.6,9.2
				c0.6,2.8,1.5,5.4,3,7.8c1.6,2.4,3.9,4.1,6.4,5.4C37.7-644.4,43.9-644.6,49.6-645.7z M89.7-653.9c-0.3-2.7-0.8-5.5-1.3-8.2
				c-1.1-5.5-2.5-11-3.6-16.5c-2.2-10.6-3.6-21.8-0.9-32.5c0.6-2.6,1.6-5.1,2.7-7.5c0.5-1.2,1-2.4,1.3-3.7c0.1-0.5,0.2-0.9,0.2-1.4
				c0,0-0.1-0.8-0.1-0.8c-0.1-0.3-0.1-0.7-0.2-1c0-0.1-0.1-0.3-0.1-0.4c0,0,0-0.1,0-0.1c0,0,0,0,0,0c-0.1-0.3-0.3-0.6-0.5-0.9
				c-0.1-0.1-0.3-0.4-0.3-0.5c-0.4-0.5-0.8-0.9-1.3-1.3c0,0,0,0,0,0c-0.1-0.1-0.2-0.2-0.3-0.2c-0.3-0.2-0.6-0.4-0.9-0.5
				c-0.3-0.2-0.7-0.4-1-0.5c-0.2-0.1-0.3-0.2-0.5-0.2c0,0-0.1,0-0.1,0c-0.6-0.2-1.2-0.5-1.9-0.6c-1.5-0.4-3-0.7-4.6-1
				c-0.1,0-0.5-0.1-0.5-0.1c-0.2,0-0.4,0-0.5-0.1c-0.4,0-0.7-0.1-1.1-0.1c-0.8-0.1-1.5-0.1-2.3-0.2c-1.5-0.1-3.1-0.1-4.6-0.1
				c-6.5,0.1-12.3,0.6-18.5,2.8c-3.4,1.2-7,2.9-9.8,5.1c-0.6,0.5-1.3,1.1-1.8,1.6c-0.5,0.5-1.1,1.2-1.3,1.5
				c-0.4,0.6-0.8,1.2-1.1,1.9c0,0-0.2,0.6-0.2,0.7c0,0.2-0.2,1.1-0.2,0.6c-0.1,0.4-0.2,0.8-0.3,1.1c0,1.6,0.4,2.9,1.4,4.3
				c1,1.5,2.4,2.8,3.6,4.2c1.6,1.9,3,3.8,4.1,6c2.3,4.6,3.6,9.6,4.5,14.6c2.1,11.3,3.9,22.7,5.9,34.1c1.2,6.9,2,19.6,11.6,19.1
				c2.5-0.1,4.9-1.1,7.2-1.9c2.7-1,5.4-2,8.1-3c3.7-1.4,8-3.3,9.2-7.5C90.1-649.2,90-651.6,89.7-653.9z M114.4-702
				c0.5-2.9,2.1-5.4,4.2-7.5c0-0.1-0.1-0.2-0.1-0.3c-0.8-5.7-4.3-10.1-9.3-12.7c-4.7-2.5-11.2-3.3-16.2-0.4c0,0.7-0.1,1.5-0.3,2.2
				c-0.7,2.7-2.1,5.2-3,7.8c-0.9,2.5-1.5,5.1-1.8,7.8c-1.6,11.7,1.3,23.3,3.9,34.7c1.3,5.8,2.6,11.7,3.1,17.7
				c0.1,0.8,0.1,1.6,0.1,2.4c4.6-1.4,9.2-3.1,13-6.1c1.9-1.5,3.5-3.3,4.6-5.5c1.5-2.9,1.7-6.3,1.7-9.5c0-6.8-0.2-13.7-0.2-20.5
				C114-695.3,113.8-698.7,114.4-702z M119-666.1c11.8,2.1,22.3-6.2,26.8-16.6c2.1-4.9,3.4-10.7,2-16c-1.2-4.5-4.3-8.1-8.4-10.2
				c-4-2-9-1.9-13.1,0.1c-2,1-3.9,2.3-5.3,4.1c-1.7,2.2-1.9,4.8-1.9,7.5c0,6.4,0.2,12.8,0.2,19.1C119.4-674,119.6-670,119-666.1z"/>
			<path class="st1" d="M83.7-673.3c-3.8-13.2-4.7-27.3-2.6-40.8c0.6-3.9,1.5-7.7,2.6-11.5c0.5-1.6-2-2.2-2.4-0.7
				c-3.9,13.6-4.8,28.1-2.6,42.1c0.6,3.9,1.5,7.8,2.6,11.6C81.8-671.1,84.2-671.7,83.7-673.3z"/>
			<path class="st1" d="M84.6-664.9c-0.2-0.2-0.6-0.4-0.9-0.4c-0.6,0-1.3,0.6-1.3,1.3c0.1,1.4,0.3,2.7,0.4,4.1
				c0,0.3,0.1,0.6,0.4,0.9c0.2,0.2,0.6,0.4,0.9,0.4c0.6,0,1.3-0.6,1.3-1.3c-0.1-1.4-0.3-2.7-0.4-4.1C85-664.3,84.9-664.6,84.6-664.9
				z"/>
			<path class="st1" d="M74.1-716.2c-0.7,0-1.2,0.6-1.3,1.3c-0.1,3.6-0.3,7.1-0.4,10.7c0,0.7,0.6,1.3,1.3,1.3c0.7,0,1.2-0.6,1.3-1.3
				c0.1-3.6,0.3-7.1,0.4-10.7C75.4-715.6,74.8-716.2,74.1-716.2z"/>
			<path class="st1" d="M109.8-715.7c-1.9,8.5-2.6,17.3-2.2,26c0.1,2.5,0.3,5,0.6,7.4c0.1,0.7,0.5,1.3,1.3,1.3
				c0.6,0,1.3-0.6,1.3-1.3c-1-8.5-1-17.1,0.2-25.5c0.3-2.4,0.8-4.8,1.3-7.2C112.6-716.6,110.2-717.3,109.8-715.7z"/>
			<path class="st1" d="M110.3-675.2c-0.7,0-1.3,0.6-1.3,1.3c0,2.1,0,4.1,0,6.2c0,0.7,0.6,1.3,1.3,1.3c0.7,0,1.3-0.6,1.3-1.3
				c0-2.1,0-4.1,0-6.2C111.5-674.6,110.9-675.3,110.3-675.2z"/>
			<path class="st1" d="M120.7-731.1c-0.2-0.1-0.3-0.3-0.3-0.5c0-0.2,0.1-0.4,0.3-0.5c3.5-2.6,6.3-6.2,7.9-10.3
				c0.1-0.2,0.3-0.4,0.6-0.4h0c0.3,0,0.5,0.2,0.6,0.4c1.6,4.1,4.4,7.6,7.9,10.3c0.2,0.1,0.3,0.3,0.3,0.5c0,0.2-0.1,0.4-0.3,0.5
				c-3.5,2.6-6.3,6.2-7.9,10.3c-0.1,0.2-0.3,0.4-0.6,0.4h0c-0.3,0-0.5-0.2-0.6-0.4C126.9-724.9,124.2-728.5,120.7-731.1z
				 M122.1-731.6c3,2.4,5.5,5.5,7.1,8.9c1.6-3.5,4.1-6.5,7.1-8.9c-3-2.4-5.5-5.5-7.1-9C127.5-737.1,125.1-734,122.1-731.6z"/>
			<path class="st1" d="M104.6-744.7c-0.2-0.1-0.3-0.3-0.3-0.5c0-0.2,0.1-0.4,0.3-0.5c1.7-1.2,3-2.9,3.7-4.9
				c0.1-0.2,0.3-0.4,0.6-0.4c0,0,0,0,0,0c0.3,0,0.5,0.2,0.6,0.4c0.8,1.9,2.1,3.6,3.7,4.9c0.2,0.1,0.3,0.3,0.3,0.5
				c0,0.2-0.1,0.4-0.3,0.5c-1.7,1.2-3,2.9-3.7,4.8c-0.1,0.2-0.3,0.4-0.6,0.4c0,0,0,0,0,0c-0.3,0-0.5-0.2-0.6-0.4
				C107.5-741.8,106.2-743.5,104.6-744.7z M106-745.2c1.2,1,2.2,2.2,2.9,3.6c0.7-1.4,1.7-2.6,2.9-3.6c-1.2-1-2.2-2.3-2.9-3.6
				C108.2-747.5,107.2-746.2,106-745.2z"/>
			<path class="st1" d="M87.4-489.4c-0.7,0-1.3,0.6-1.3,1.3c0,1.3,0,2.6,0,4c0,0.7,0.6,1.3,1.3,1.3c0.7,0,1.3-0.6,1.3-1.3
				c0-1.3,0-2.6,0-4C88.6-488.8,88-489.4,87.4-489.4z"/>
			<path class="st1" d="M87.4-478.2c-0.7,0-1.3,0.6-1.3,1.3c0,1.3,0,2.6,0,4c0,0.7,0.6,1.3,1.3,1.3c0.7,0,1.3-0.6,1.3-1.3
				c0-1.3,0-2.6,0-4C88.6-477.5,88-478.2,87.4-478.2z"/>
			<path class="st1" d="M95-481.8c-1.3,0-2.6,0-4,0c-0.7,0-1.3,0.6-1.3,1.3c0,0.7,0.6,1.3,1.3,1.3c1.3,0,2.6,0,4,0
				c0.7,0,1.3-0.6,1.3-1.3C96.2-481.2,95.7-481.8,95-481.8z"/>
			<path class="st1" d="M83.7-481.8c-1.3,0-2.6,0-4,0c-0.7,0-1.3,0.6-1.3,1.3c0,0.7,0.6,1.3,1.3,1.3c1.3,0,2.6,0,4,0
				c0.7,0,1.3-0.6,1.3-1.3C85-481.2,84.4-481.8,83.7-481.8z"/>
			<path class="st1" d="M208.6-637.3c0-2.5,2-4.5,4.5-4.5c2.5,0,4.5,2,4.5,4.5c0,2.5-2,4.5-4.5,4.5
				C210.6-632.8,208.6-634.8,208.6-637.3z M211.1-637.3c0,1.1,0.9,2,2,2c1.1,0,2-0.9,2-2c0-1.1-0.9-2-2-2
				C212-639.3,211.1-638.4,211.1-637.3z"/>
		</g>
		<g>
			<path class="st1" d="M420.9-694.4c5.5,4.9,10.4,10.7,13.3,17.6c2.5,5.9,2.9,12.4,1,18.6c-1.5,4.8-4.2,9.2-8,12.4
				c0,0.4,0,0.8-0.1,1.1c-0.6,8.9-1.7,18.2-5.7,26.3c-1.9,3.8-4.7,7.3-8.4,9.6c-4.1,2.5-9.1,3.2-13.8,2.6c-16.6-2-33.2-4.6-49.8-7.4
				c-7.3-1.2-14.8-2.2-21.9-4.2c-6.2-1.7-12.2-4.6-16.1-9.8c-8.3-11.1-5.2-26-3.2-38.6c-2.8-2.3-5-5.4-6.1-9
				c-3.9-12.1,6.5-22.7,15.6-29c4.5-3.2,9.5-5.9,14.7-7.8c5.7-2,12-3.1,18-3.4c-0.1-0.5-0.2-1-0.3-1.5c-0.7-5.3,0.2-11,3.5-15.4
				c0.4-0.5,0.8-0.8,1.3-1.1c0.1-0.3,0.3-0.6,0.6-0.9c0.2-0.2,0.4-0.3,0.5-0.5c-2-2.4-2.6-5.7-1.2-8.7c1.5-3.1,5.1-4.6,8.5-4.1
				c1.4,0.2,3,0.9,4,2c0.2-0.9,0.5-1.8,0.8-2.6c1.5-3.3,5.3-5.2,8.8-4.5c1.9,0.4,3.6,1.6,4.7,3.2c2.4-1.5,5.3-2,8-0.6
				c3.2,1.7,4.9,6.2,3.1,9.4c3.1,1.7,5.7,4.1,7.2,7.4c0.1,0.3,0.3,0.6,0.4,1c0.1-0.8,0.4-1.7,1.2-2c4.4-1.9,9.2-1.9,13.5-0.4
				c2.4-3,6.5-4.7,10.2-3.1c2.6,1.1,4.4,3.8,4.6,6.6c1.3,0.4,2.5,1.3,3.3,2.5c0.9,1.4,1.1,3,0.7,4.5c2.7,1.4,4.9,4,5,7.2
				c0.2,4.3-4,8.1-8.2,7c-0.3-0.1-0.6-0.2-0.8-0.4c-0.3,4.1-1.5,8.1-4,11.5C424.5-697.1,422.8-695.6,420.9-694.4z M425.1-727
				c2.6,3.6,4.2,8.1,4.7,12.6c0.5-0.5,1.3-0.8,2.2-0.5c0.1,0,0.2,0.1,0.3,0.1c0.2,0,0.4-0.1,0.4-0.1c0.2-0.1,0.5-0.3,0.6-0.6
				c0.4-0.6,0.6-1.2,0.4-1.8c-0.4-1.7-2.4-2.7-4.1-3.1c-1.9-0.4-2.4-2.9-1.1-4.2c0.4-0.4,0.5-1,0.3-1.5c-0.3-0.5-1-0.5-1.5-0.4
				C426.5-726.2,425.7-726.5,425.1-727z M419.7-732.3c0.7,0.5,1.4,1,2.1,1.6c1,0.8,1.8,1.8,2.6,2.8c-0.3-0.7-0.3-1.5,0.1-2.2
				c0.3-0.5,0.3-1,0.1-1.6c-0.3-0.7-0.9-1.3-1.4-1.5C421.9-733.7,420.6-733.2,419.7-732.3z M393.6-733.6c-2.8-3.1-7.1-4.5-11.2-5
				c-8.5-0.9-17.5,1.6-23.4,7.9c-0.3,0.3-0.6,0.5-0.9,0.6c0,0.1-0.1,0.2-0.2,0.3c-2.9,4-3.7,9.1-2.5,13.9c1.2,5,4.3,9.4,8,13
				c6.3,6.1,16.5,12,25,6.7c8.4-5.2,8.6-16.8,8.4-25.5C396.8-725.7,396.6-730.4,393.6-733.6z M382.7-743.7
				C382.7-743.7,382.7-743.7,382.7-743.7c1.5,0.3,3.1,0.5,4.7,1c0.2,0,0.3,0.1,0.5,0.1c0.5-0.7,0.6-1,0.3-1.8
				c-0.2-0.5-0.6-1.1-1.2-1.3C385.5-746.4,383.6-745.1,382.7-743.7z M371.8-743.2c0,0,0,0.1-0.1,0.1c2.2-0.5,4.4-0.7,6.6-0.8
				c-0.2-0.3-0.3-0.7-0.3-1.1c-0.1-2.4-2.7-3.6-4.5-2.1C372.3-746.2,372.3-744.5,371.8-743.2z M359.8-737.9c1.6-1.2,3.4-2.1,5.3-3
				c-0.2-0.1-0.4-0.3-0.6-0.5c-0.4-0.3-0.8-0.8-1.2-1c-0.9-0.4-2-0.4-2.8,0.1C358.9-741.5,358.6-739.1,359.8-737.9z M312.8-663.4
				c-0.5,3-1,6.2-1.4,9.4c2.6,2.3,5.6,4.1,8.7,5.5c3.6,1.6,7.4,2.4,11.3,3.3c15,3.7,30,7.3,45.3,9.5c14.7,2.1,29.7,2.7,44.4,1
				c0.4-2.6,0.7-5.3,0.9-7.9c-8.2,3.3-18.7,0.5-23.2-7.1c-0.3,0.2-0.6,0.5-0.9,0.7c-10.1,7.5-25.6,6-33.9-3.5
				c-0.9-1-1.9-2.5-3.2-2.9c-1.3-0.4-2.7,1.1-3.8,1.7c-2.7,1.6-5.8,2.4-8.9,2.4c-6.3,0-12.7-3.1-16.2-8.4c-0.8-1.2-1.2-2.6-2-3.7
				c-0.5-0.6-0.7-0.3-1.5-0.1c-0.8,0.3-1.5,0.6-2.3,0.9c-3.2,1-6.8,1-10.1,0.2C314.9-662.6,313.8-662.9,312.8-663.4z M420.6-632.1
				c-8.1,1-16.4,1.2-24.6,0.8c-15.4-0.7-30.7-3.4-45.7-6.8c-7.7-1.7-15.5-3.6-23.2-5.5c-5.8-1.4-11.4-3.7-16.1-7.3
				c-0.2,2-0.2,4.1-0.2,6c4.9,3.5,10.5,6,16.1,7.9c6.4,2.2,13,3.7,19.6,5.1c7,1.4,14,2.8,21,4c8.6,1.4,17.3,2.3,26,2.9
				c8.3,0.5,16.7,0.6,25,0.3C419.5-627.2,420.1-629.6,420.6-632.1z M417.6-622.2c-0.4,0-0.8,0-1.2,0c-8.8,0.2-17.7,0-26.5-0.6
				c-8.8-0.7-17.6-1.7-26.2-3.3c-6.8-1.2-13.7-2.5-20.5-4c-6.7-1.4-13.3-3.1-19.7-5.5c-4.3-1.6-8.5-3.6-12.3-6.1
				c0.7,5.5,2.7,10.6,7.4,14.2c4.6,3.6,10.6,5,16.2,6.1c7.5,1.5,15.1,2.7,22.6,4c7.8,1.3,15.6,2.5,23.4,3.6
				c3.8,0.6,7.7,1.1,11.6,1.6c3.3,0.4,6.6,1.1,9.9,1.1c2.2,0,3.7-0.2,5.9-1c0.2-0.1,0.3-0.1,0.5-0.2c-0.2,0.1-0.2,0.1,0.1,0
				c0.2-0.1,0.4-0.2,0.7-0.3c0.4-0.2,0.8-0.4,1.2-0.7c0.4-0.2,0.7-0.5,1.1-0.8c0,0,0.6-0.5,0.6-0.5
				C414.6-616.6,416.4-619.4,417.6-622.2z M416.4-692c-2.1,0.9-4.3,1.5-6.6,1.8c-5.8,1-12.1,0.6-17.1-2.9c-1.7,1.4-3.7,2.4-5.8,3.1
				c-11.2,3.4-22.7-3.9-29.7-12.2c-2.2-2.6-4-5.4-5.3-8.5c-0.2,0.1-0.5,0.2-0.8,0.2c-1.2,0.1-2.4,0.2-3.6,0.3
				c-3.1,0.4-6.1,0.9-9.1,1.6c-1.5,0.3-2.9,0.7-4.3,1.2c-1.3,0.4-2,0.8-3,1.2c-4.8,2.2-9.4,4.9-13.5,8.2c-4.1,3.3-8.1,7.2-10.1,12.1
				c-0.8,2-1.2,4.1-1,6.5c0.1,0.8,0.4,2.2,0.8,3.3c0.4,1.2,1.1,2.5,1.9,3.6c3.2,4.3,9.3,6.5,14.6,5.3c1.6-0.4,3.1-1.3,4.7-1.6
				c2.1-0.4,4,0.3,5.3,2c1,1.2,1.5,2.7,2.3,4c0.7,1.1,1.5,2,2.4,2.8c3.8,3.4,9.6,4.4,14.4,2.6c1.2-0.5,2.4-1.4,3.6-2.1
				c1.7-1,3.6-1.5,5.6-1.1c3.3,0.8,5,3.9,7.3,6.1c7.8,7.3,21.6,6.5,28.6-1.6c1.3-1.5,3.7-0.6,4.2,1.1c1.3,4.6,5.5,7.4,10.2,8.3
				c3.5,0.7,7.2-0.2,10.3-2.2c0.3-0.7,1-1.1,1.7-1.2c0,0,0,0,0,0c3.8-3.3,6-8,6.9-12.9c2-11.4-6.2-21.6-14.2-28.6
				C416.6-691.5,416.5-691.7,416.4-692z M422.3-702.8c2.2-3.7,3-8.4,2.2-12.6c-0.8-4.7-3.2-9.3-7-12.2c-3.7-2.9-9.1-4.2-13.6-2.3
				c-1.1,0.5-2.3,0.4-3.1-0.4c1.2,4.1,1.1,8.6,1.1,12.8c-0.1,5.9-0.7,11.9-3.4,17.3c-0.6,1.3-1.4,2.5-2.3,3.6
				c4.2,2.3,9.2,2.4,13.8,1.3C414.9-696.5,419.7-698.5,422.3-702.8z"/>
			<path class="st1" d="M444.6-680.7c-0.6,0.2-1.1,0.9-0.9,1.6c2.3,6.2,2.8,12.9,1.5,19.3c-0.1,0.7,0.2,1.4,0.9,1.6
				c0.6,0.2,1.4-0.2,1.6-0.9c1.4-6.9,0.9-14.1-1.5-20.7C445.9-680.5,445.3-680.9,444.6-680.7z"/>
			<path class="st1" d="M439.4-678.2c-0.6,0.4-0.7,1.1-0.5,1.7c1.3,3.1,1.8,6.4,1.4,9.7c-0.1,0.7,0.6,1.3,1.3,1.3
				c0.7,0,1.2-0.6,1.3-1.3c0.4-3.8-0.2-7.5-1.7-11C440.8-678.3,439.9-678.5,439.4-678.2z"/>
			<path class="st1" d="M531-745.5c0.2,0.1,0.3,0.3,0.3,0.5c0,0.2-0.1,0.4-0.3,0.5c-1.7,1.2-3,2.9-3.7,4.8c-0.1,0.2-0.3,0.4-0.6,0.4
				c0,0,0,0,0,0c-0.3,0-0.5-0.2-0.6-0.4c-0.8-1.9-2.1-3.6-3.7-4.8c-0.2-0.1-0.3-0.3-0.3-0.5c0-0.2,0.1-0.4,0.3-0.5
				c1.7-1.2,3-2.9,3.7-4.9c0.1-0.2,0.3-0.4,0.6-0.4c0,0,0,0,0,0c0.3,0,0.5,0.2,0.6,0.4C528-748.5,529.3-746.8,531-745.5z M529.6-745
				c-1.2-1-2.2-2.3-2.9-3.6c-0.7,1.4-1.7,2.6-2.9,3.6c1.2,1,2.2,2.2,2.9,3.6C527.4-742.8,528.4-744,529.6-745z"/>
			<path class="st1" d="M608.9-667.2c-0.1,0.1-0.3,0.1-0.4,0.2c-10.3,3.3-20.9,5.4-31.6,6.4c-9.4,0.9-18.9,0.9-28.3,0
				c-4.7-0.5-9.5-1.1-14.1-2.1c-2.2-0.5-4.1-1.4-5.4-3.3c-1.3-1.8-2-4.1-2.9-6.2c-3.7-8.7-6.6-17.8-8.8-27c-0.5-2.1-1.2-4.3-0.8-6.5
				c0.4-2.3,2.2-3.8,4.4-4.4c2.2-0.5,4.6-0.7,6.9-1c2.3-0.3,4.5-0.6,6.8-0.9c-1.6-5.7-0.1-12,4.8-16c1.7-1.4,3.5-2.3,5.5-2.9
				c-1.1-4.7,0.2-9.9,3.5-13.4c2.4-2.6,5.6-4,9.1-4.4c-0.6-2.2-0.6-4.5,0.1-6.7c1.1-3.2,3.3-5.6,6.5-6.9c2.7-1.1,5.2-2.1,6.9-4.7
				c1.4-2.1,2.3-4.8,1.9-7.4c-0.3-2,1.1-3.4,3.1-3.1c5,0.7,9.5,4.1,11.8,8.6c0.3,0.6,0.3,1.2,0.2,1.7c2.1-0.6,4.2-0.9,6.4-0.9
				c0.4,0,0.7,0,1.1,0.1c1-0.9,2-1.8,3-2.6c1.1-0.8,2.5-1.1,3.6,0c0.9,0.9,1.1,2.7,0,3.6c-0.2,0.1-0.4,0.3-0.5,0.4
				c4.3,1.7,8,4.9,10,9.3c2.4,5.4,2.5,11.9-0.1,17.2c1.7,0,3.4,0.4,4.9,1.4c5.1,3.2,7.1,9.9,6,15.6c-0.6,3.1-2.3,6-4.7,8
				c-1.8,1.5-3.9,2.5-6.1,3.2c3.3,0.8,5.9,3.4,7.2,6.7c1.6,4.1,1.1,8.7,1,12.9c-0.1,3.7-0.1,7.5-0.7,11.2
				C618.3-675,615.1-669.1,608.9-667.2z M528.2-680.8c6.3,0.9,12.7,1.8,19.1,2.5c11.3,1.2,22.8,1.8,34.2,0.7
				c11.3-1.1,22.4-4.1,32.6-9.2c0.3-0.1,0.5-0.2,0.8-0.1c0.1-1.9,0.1-3.9,0.2-5.8c0-0.8,0.1-1.6,0.1-2.4c-5.2,3.4-11,5.9-17,7.6
				c-5.7,1.6-11.5,2.4-17.4,3.1c-6.2,0.7-12.5,1.4-18.8,1.5c-12.1,0.2-24.2-1.3-35.9-4.3c0.6,2,1.3,3.9,2,5.9
				C528-681.2,528.1-681,528.2-680.8z M615.9-720.2C616-720.3,616.1-720.5,615.9-720.2L615.9-720.2z M601-761.3
				c-1.2-0.6-2.4-1-3.7-1.3c-3.1,3.1-5.8,6.6-8,10.4c3.7,0.9,7.3,2.6,10.3,5.2c2.4,2.1,4.4,4.7,5.7,7.6c0,0,0-0.1,0.1-0.1
				c1.9-2.5,3-5.5,3-8.6C608.6-753.7,605.9-758.8,601-761.3z M564.3-725.3c0.9,3.9,5,6.5,8.4,8.1c4.4,2.1,9.9,2.8,14.7,2.7
				c3.7-0.1,7.2-1.3,10-3.9c2.5-2.3,4.2-5.4,4.9-8.7c1.5-6.9-2.5-14.3-8.4-17.9c-2.1-1.3-4.5-2.2-6.9-2.6c-0.9,1.9-1.6,3.8-2.2,5.8
				c-1,3.1-5.8,1.8-4.9-1.3c0.5-1.6,1.1-3.1,1.7-4.6c-3.5,0.3-6.9,1.4-9.8,3.3c-5.7,3.6-9.9,10.8-8.3,17.6c0,0.1,0,0.2,0,0.3
				C563.9-726.2,564.2-725.8,564.3-725.3z M550-731.7c2.8,0,5.6,0.6,8.1,1.8c0-8.6,6-16.8,13.8-20.4c3.8-1.7,7.9-2.6,12-2.5
				c1.8-3.4,4-6.7,6.5-9.7c-1.7,0.4-3.3,1.1-4.7,2.1c-1.1,0.8-2.8,0.2-3.5-0.9c-0.7-1.2-0.2-2.7,0.9-3.5c0.3-0.2,0.7-0.5,1.1-0.7
				c-0.3-0.2-0.5-0.5-0.7-0.9c-1.2-2.5-3.2-4.3-5.6-5.3c-0.5,4.9-3.1,9.4-7.4,12c-2.4,1.5-5.7,1.7-7.3,4.2c-1.2,1.9-1.4,4.3-0.3,6.3
				c0.2,0.4,0.3,0.8,0.3,1.2c0.5,0.6,0.7,1.6,0.5,2.3c-0.3,1.4-1.8,2-3.1,1.8c-0.1,0-0.2,0-0.2,0c0,0-0.1,0-0.1,0
				c-0.2,0-0.5,0-0.7,0c-0.5,0-1,0-1.5,0c-0.1,0-0.1,0-0.1,0c0,0-0.1,0-0.1,0c-0.2,0-0.4,0.1-0.7,0.1c-0.4,0.1-0.9,0.2-1.3,0.4
				c-0.2,0.1-0.3,0.1-0.5,0.2c-0.1,0-0.3,0.1-0.4,0.2c-0.4,0.2-0.8,0.4-1.2,0.7c-0.2,0.1-0.4,0.3-0.6,0.4c0,0-0.1,0-0.1,0.1
				c0,0-0.1,0.1-0.1,0.1c-0.3,0.3-0.7,0.6-1,0.9c-0.1,0.1-0.2,0.3-0.3,0.4c0,0-0.2,0.3-0.3,0.3c-0.3,0.4-0.5,0.8-0.7,1.2
				c-0.1,0.2-0.2,0.4-0.3,0.6c0,0.1,0,0.1-0.1,0.1c0,0,0,0.1,0,0.1c-0.2,0.5-0.3,0.9-0.4,1.4c-0.1,0.2-0.1,0.4-0.1,0.7
				c0,0.1,0,0.2-0.1,0.3c0,0.4-0.1,0.9-0.1,1.3c0,0.5,0,0.9,0.1,1.4c0,0.1,0,0.3,0.1,0.3c0,0.2,0.1,0.4,0.2,0.7
				C550-731.9,550-731.8,550-731.7z M543.4-707.2c4.9,4.8,12.2,5.6,18.7,5.3c14.6-0.7,29.2-5.4,41.8-12.6c0.1,0,0.2-0.1,0.3-0.1
				c0.5-0.7,1.2-1.1,2.1-1.2c1-0.1,1.7-0.2,2.9-0.4c0.5-0.1,1-0.2,1.4-0.4c0.2-0.1,0.4-0.2,0.7-0.2c0,0,0.3-0.1,0.4-0.1
				c0.7-0.3,1.3-0.7,2-1.1c0.2-0.1,0.4-0.3,0.6-0.4c0,0,0,0,0,0c0.3-0.2,0.6-0.5,0.9-0.8c0.3-0.3,0.5-0.5,0.8-0.8
				c0.1-0.1,0.2-0.2,0.3-0.4c0.3-0.5,0.6-1,0.9-1.5c0,0,0,0,0,0c0,0,0,0,0,0c0-0.1,0.1-0.3,0.2-0.4c0.1-0.2,0.2-0.5,0.2-0.7
				c0.1-0.3,0.1-0.6,0.2-0.8c0-0.2,0.1-0.5,0.1-0.6c0.1-0.5,0.1-1.1,0.1-1.6c0-0.3,0-0.6,0-0.8c0-0.1,0-0.2,0-0.4
				c-0.1-0.6-0.2-1.2-0.4-1.8c-0.1-0.3-0.2-0.5-0.3-0.8c0-0.1-0.1-0.2-0.1-0.3c0,0,0,0,0,0c-0.3-0.5-0.5-1-0.8-1.5
				c-0.1-0.2-0.3-0.4-0.4-0.6c0,0,0-0.1,0-0.1c0,0-0.1-0.1-0.1-0.1c-0.4-0.4-0.8-0.7-1.1-1.1c-0.1,0-0.1-0.1-0.2-0.1
				c-0.2-0.1-0.4-0.3-0.6-0.4c-0.1-0.1-0.2-0.1-0.4-0.2c-0.2-0.1-0.4-0.1-0.6-0.2c-0.2-0.1-0.5-0.1-0.7-0.2c0.8,0.2,0,0-0.2,0
				c-0.3,0-0.6,0-0.9,0c0,0,0.1,0,0.1,0c-0.1,0-0.1,0-0.2,0c0,0,0,0,0,0c-0.1,0-0.3,0.1-0.1,0c0,0-0.1,0-0.1,0
				c-0.3,0.1-0.5,0.1-0.8,0.2c-0.2,0.1-1,0.4-0.4,0.1c-0.7,0.3-1.5,0.4-2.1,0.2c0.8,3.8,0.6,7.9-0.9,11.6c-1.6,4.1-4.4,7.7-8.1,10.2
				c-4.4,2.9-9.6,3.5-14.7,3c-5.2-0.5-10.5-1.5-15-4.2c-3.8-2.2-7.5-5.3-8.8-9.7c-0.3,0-0.6-0.1-0.9-0.3c-5.4-3.9-13.7-4.3-17.8,1.7
				C537.5-717.1,539.4-711.1,543.4-707.2z M522.1-701c0.5,2.3,1.1,4.7,1.8,7c0.4,1.3,0.8,2.6,1.2,3.9c6.5,1.8,13.1,3,19.8,3.8
				c6.4,0.7,12.8,1,19.3,0.8c6.1-0.2,12.3-0.9,18.4-1.7c5.6-0.7,11.3-1.7,16.7-3.3c5.6-1.7,10.8-4.2,15.6-7.5c0.1,0,0.1-0.1,0.2-0.1
				c0-0.6,0-1.2-0.1-1.7c-0.1-1.8-0.5-3.8-1.7-5.3c-0.8-1-2.3-2.1-3.7-1.9c-1.4,0.2-2.7-0.3-3.1-1.8c-0.1-0.4-0.1-0.9,0-1.3
				c-8.3,4.7-17.2,8.3-26.4,10.6c-13.7,3.4-34.4,6.4-43.2-7.6c-2.6,0.4-5.2,0.7-7.8,1.1c-2.3,0.3-4.9,0.4-7.2,1.1
				c-0.1,0-0.2,0.1-0.2,0.1c0,0.1-0.1,0.2-0.1,0.2c0,0.2,0,0.5,0,0.8C521.6-703,521.9-702,522.1-701z M606.1-671.6
				c0.2-0.1,0.4-0.2,0.7-0.3c5.6-1.3,7.3-7.1,7.7-12.4c-5.7,2.8-11.7,5.1-17.9,6.6c-11.2,2.8-22.8,3.5-34.2,3
				c-11.2-0.4-22.2-1.9-33.3-3.5c1.1,2.9,2.2,5.7,3.6,8.4c0.8,1.6,1.9,1.9,3.6,2.2c2.1,0.4,4.3,0.8,6.4,1.1c4.2,0.6,8.5,1,12.8,1.2
				C572.6-664.3,589.8-666.5,606.1-671.6z"/>
			<path class="st1" d="M610.8-734.9c-0.1,0-0.1,0-0.2,0C610.6-734.9,610.7-734.9,610.8-734.9C610.8-734.9,610.8-734.9,610.8-734.9z
				"/>
			<path class="st1" d="M588.6-722c0.5,0.5,1.3,0.5,1.8,0c1.4-1.4,2.8-2.8,4.1-4.2c0.5-0.5,0.5-1.3,0-1.8c-0.5-0.5-1.3-0.5-1.8,0
				c-1.4,1.4-2.8,2.8-4.1,4.2C588.2-723.3,588.1-722.4,588.6-722z"/>
			<path class="st1" d="M588-726.4c1.7-0.9,3.2-2.2,4.2-3.8c0.2-0.3,0.2-0.7,0.1-1c-0.1-0.3-0.3-0.6-0.6-0.8
				c-0.6-0.3-1.3-0.1-1.7,0.5c-0.1,0.1-0.1,0.2-0.2,0.3c-0.5,0.6-1,1.2-1.7,1.7c-0.5,0.3-1,0.7-1.5,0.9c-0.6,0.3-0.8,1.2-0.5,1.7
				C586.7-726.3,587.4-726.1,588-726.4z"/>
			<path class="st1" d="M627.8-670.3c0.9-1.4-1.3-2.6-2.2-1.3c-3.6,5.5-9,9.7-15.1,12c-0.6,0.2-1.1,0.9-0.9,1.6
				c0.2,0.6,0.9,1.1,1.6,0.9C618-659.6,623.8-664.2,627.8-670.3z"/>
			<path class="st1" d="M635-668.6c-0.4-0.4-1.4-0.5-1.8,0c-3.8,4.9-8.4,9-13.6,12.2c-1.4,0.8-0.1,3,1.3,2.2
				c5.4-3.3,10.2-7.6,14.1-12.6C635.5-667.4,635.6-668.1,635-668.6z"/>
			<path class="st1" d="M481.1-654.4c-0.7,0-1.3,0.6-1.3,1.3c0,1.3,0,2.6,0,4c0,0.7,0.6,1.3,1.3,1.3c0.7,0,1.3-0.6,1.3-1.3
				c0-1.3,0-2.6,0-4C482.4-653.8,481.8-654.4,481.1-654.4z"/>
			<path class="st1" d="M481.1-643.1c-0.7,0-1.3,0.6-1.3,1.3c0,1.3,0,2.6,0,4c0,0.7,0.6,1.3,1.3,1.3c0.7,0,1.3-0.6,1.3-1.3
				c0-1.3,0-2.6,0-4C482.4-642.5,481.8-643.2,481.1-643.1z"/>
			<path class="st1" d="M488.7-646.8c-1.3,0-2.6,0-4,0c-0.7,0-1.3,0.6-1.3,1.3c0,0.7,0.6,1.3,1.3,1.3c1.3,0,2.6,0,4,0
				c0.7,0,1.3-0.6,1.3-1.3C489.9-646.2,489.4-646.8,488.7-646.8z"/>
			<path class="st1" d="M477.5-646.8c-1.3,0-2.6,0-4,0c-0.7,0-1.3,0.6-1.3,1.3c0,0.7,0.6,1.3,1.3,1.3c1.3,0,2.6,0,4,0
				c0.7,0,1.3-0.6,1.3-1.3C478.7-646.2,478.2-646.8,477.5-646.8z"/>
			<path class="st1" d="M270.6-690.4c0,2.5-2,4.5-4.5,4.5c-2.5,0-4.5-2-4.5-4.5c0-2.5,2-4.5,4.5-4.5
				C268.6-694.8,270.6-692.8,270.6-690.4z M268.1-690.4c0-1.1-0.9-2-2-2s-2,0.9-2,2c0,1.1,0.9,2,2,2S268.1-689.3,268.1-690.4z"/>
		</g>
	</g>
</pattern>
<g id="BG">
	<g>
		<rect x="0" y="0" class="st2" width="2500" height="2000"/>
	</g>
</g>
<g id="Layer_1">
	<g class="st3">
		<rect x="0" y="0" class="st4" width="2500" height="2000"/>
	</g>
	<g class="st5">
		<rect x="0" y="1486.3" class="st6" width="1540.7" height="335.6"/>
		<g class="st7">
			<rect x="0" y="1476.3" class="st8" width="1540.7" height="335.6"/>
			<g>
				<g>
					<text transform="matrix(1 0 0 1 131.2344 1691.0032)" class="st2 st9 st10">BAKERY PATTERN</text>
				</g>
			</g>
		</g>
	</g>
</g>
</svg>
